<?xml version="1.0" encoding="UTF-8" standalone="no"?>
<!DOCTYPE svg PUBLIC "-//W3C//DTD SVG 1.1//EN"
 "http://www.w3.org/Graphics/SVG/1.1/DTD/svg11.dtd">
<!-- Generated by graphviz version 2.30.1 (20180828.1746)
 -->
<!-- Title: controllers_diagram Pages: 1 -->
<svg width="1111pt" height="1290pt"
 viewBox="0.00 0.00 1111.00 1290.00" xmlns="http://www.w3.org/2000/svg" xmlns:xlink="http://www.w3.org/1999/xlink">
<g id="graph0" class="graph" transform="scale(1 1) rotate(0) translate(4 1286)">
<title>controllers_diagram</title>
<polygon fill="none" stroke="none" points="-4,5 -4,-1286 1108,-1286 1108,5 -4,5"/>
<!-- _diagram_info -->
<g id="node1" class="node"><title>_diagram_info</title>
<text text-anchor="start" x="701" y="-126.6" font-family="Times,serif" font-size="13.00">Controllers diagram</text>
<text text-anchor="start" x="701" y="-112.6" font-family="Times,serif" font-size="13.00">Date: Feb 13 2021 &#45; 19:55</text>
<text text-anchor="start" x="701" y="-98.6" font-family="Times,serif" font-size="13.00">Migration version: 20210110203219</text>
<text text-anchor="start" x="701" y="-84.6" font-family="Times,serif" font-size="13.00">Generated by RailRoady 1.5.3</text>
<text text-anchor="start" x="701" y="-70.6" font-family="Times,serif" font-size="13.00">http://railroady.prestonlee.com</text>
</g>
<!-- CheckinsController -->
<g id="node2" class="node"><title>CheckinsController</title>
<path fill="none" stroke="black" d="M180,-294.5C180,-294.5 325,-294.5 325,-294.5 331,-294.5 337,-300.5 337,-306.5 337,-306.5 337,-450.5 337,-450.5 337,-456.5 331,-462.5 325,-462.5 325,-462.5 180,-462.5 180,-462.5 174,-462.5 168,-456.5 168,-450.5 168,-450.5 168,-306.5 168,-306.5 168,-300.5 174,-294.5 180,-294.5"/>
<text text-anchor="middle" x="252.5" y="-447.3" font-family="Times,serif" font-size="14.00">CheckinsController</text>
<polyline fill="none" stroke="black" points="168,-439.5 337,-439.5 "/>
<text text-anchor="start" x="176" y="-424.3" font-family="Times,serif" font-size="14.00">door_list</text>
<text text-anchor="start" x="176" y="-409.3" font-family="Times,serif" font-size="14.00">seatmap</text>
<text text-anchor="start" x="176" y="-394.3" font-family="Times,serif" font-size="14.00">show</text>
<text text-anchor="start" x="176" y="-379.3" font-family="Times,serif" font-size="14.00">update</text>
<text text-anchor="start" x="176" y="-364.3" font-family="Times,serif" font-size="14.00">walkup_subscriber_confirm</text>
<polyline fill="none" stroke="black" points="168,-356.5 337,-356.5 "/>
<polyline fill="none" stroke="black" points="168,-332.5 337,-332.5 "/>
<text text-anchor="start" x="176" y="-317.3" font-family="Times,serif" font-size="14.00">_layout</text>
<text text-anchor="start" x="176" y="-302.3" font-family="Times,serif" font-size="14.00">get_showdate</text>
</g>
<!-- ValidVouchersController -->
<g id="node3" class="node"><title>ValidVouchersController</title>
<path fill="none" stroke="black" d="M180,-819.5C180,-819.5 310,-819.5 310,-819.5 316,-819.5 322,-825.5 322,-831.5 322,-831.5 322,-975.5 322,-975.5 322,-981.5 316,-987.5 310,-987.5 310,-987.5 180,-987.5 180,-987.5 174,-987.5 168,-981.5 168,-975.5 168,-975.5 168,-831.5 168,-831.5 168,-825.5 174,-819.5 180,-819.5"/>
<text text-anchor="middle" x="245" y="-972.3" font-family="Times,serif" font-size="14.00">ValidVouchersController</text>
<polyline fill="none" stroke="black" points="168,-964.5 322,-964.5 "/>
<text text-anchor="start" x="176" y="-949.3" font-family="Times,serif" font-size="14.00">create</text>
<text text-anchor="start" x="176" y="-934.3" font-family="Times,serif" font-size="14.00">destroy</text>
<text text-anchor="start" x="176" y="-919.3" font-family="Times,serif" font-size="14.00">edit</text>
<text text-anchor="start" x="176" y="-904.3" font-family="Times,serif" font-size="14.00">new</text>
<text text-anchor="start" x="176" y="-889.3" font-family="Times,serif" font-size="14.00">show</text>
<text text-anchor="start" x="176" y="-874.3" font-family="Times,serif" font-size="14.00">update</text>
<polyline fill="none" stroke="black" points="168,-866.5 322,-866.5 "/>
<polyline fill="none" stroke="black" points="168,-842.5 322,-842.5 "/>
<text text-anchor="start" x="176" y="-827.3" font-family="Times,serif" font-size="14.00">_layout</text>
</g>
<!-- LabelsController -->
<g id="node4" class="node"><title>LabelsController</title>
<path fill="none" stroke="black" d="M33,-966.5C33,-966.5 117,-966.5 117,-966.5 123,-966.5 129,-972.5 129,-978.5 129,-978.5 129,-1092.5 129,-1092.5 129,-1098.5 123,-1104.5 117,-1104.5 117,-1104.5 33,-1104.5 33,-1104.5 27,-1104.5 21,-1098.5 21,-1092.5 21,-1092.5 21,-978.5 21,-978.5 21,-972.5 27,-966.5 33,-966.5"/>
<text text-anchor="middle" x="75" y="-1089.3" font-family="Times,serif" font-size="14.00">LabelsController</text>
<polyline fill="none" stroke="black" points="21,-1081.5 129,-1081.5 "/>
<text text-anchor="start" x="29" y="-1066.3" font-family="Times,serif" font-size="14.00">create</text>
<text text-anchor="start" x="29" y="-1051.3" font-family="Times,serif" font-size="14.00">destroy</text>
<text text-anchor="start" x="29" y="-1036.3" font-family="Times,serif" font-size="14.00">index</text>
<text text-anchor="start" x="29" y="-1021.3" font-family="Times,serif" font-size="14.00">update</text>
<polyline fill="none" stroke="black" points="21,-1013.5 129,-1013.5 "/>
<polyline fill="none" stroke="black" points="21,-989.5 129,-989.5 "/>
<text text-anchor="start" x="29" y="-974.3" font-family="Times,serif" font-size="14.00">_layout</text>
</g>
<!-- ApplicationController -->
<g id="node5" class="node"><title>ApplicationController</title>
<path fill="none" stroke="black" d="M600,-399.5C600,-399.5 747,-399.5 747,-399.5 753,-399.5 759,-405.5 759,-411.5 759,-411.5 759,-884.5 759,-884.5 759,-890.5 753,-896.5 747,-896.5 747,-896.5 600,-896.5 600,-896.5 594,-896.5 588,-890.5 588,-884.5 588,-884.5 588,-411.5 588,-411.5 588,-405.5 594,-399.5 600,-399.5"/>
<text text-anchor="middle" x="673.5" y="-881.3" font-family="Times,serif" font-size="14.00">ApplicationController</text>
<polyline fill="none" stroke="black" points="588,-873.5 759,-873.5 "/>
<text text-anchor="start" x="596" y="-858.3" font-family="Times,serif" font-size="14.00">allow_guest_checkout?</text>
<text text-anchor="start" x="596" y="-843.3" font-family="Times,serif" font-size="14.00">create_session</text>
<text text-anchor="start" x="596" y="-828.3" font-family="Times,serif" font-size="14.00">download_to_excel</text>
<text text-anchor="start" x="596" y="-813.3" font-family="Times,serif" font-size="14.00">email_confirmation</text>
<text text-anchor="start" x="596" y="-798.3" font-family="Times,serif" font-size="14.00">find_cart</text>
<text text-anchor="start" x="596" y="-783.3" font-family="Times,serif" font-size="14.00">is_admin</text>
<text text-anchor="start" x="596" y="-768.3" font-family="Times,serif" font-size="14.00">is_admin_filter</text>
<text text-anchor="start" x="596" y="-753.3" font-family="Times,serif" font-size="14.00">is_boxoffice</text>
<text text-anchor="start" x="596" y="-738.3" font-family="Times,serif" font-size="14.00">is_boxoffice_filter</text>
<text text-anchor="start" x="596" y="-723.3" font-family="Times,serif" font-size="14.00">is_boxoffice_manager</text>
<text text-anchor="start" x="596" y="-708.3" font-family="Times,serif" font-size="14.00">is_boxoffice_manager_filter</text>
<text text-anchor="start" x="596" y="-693.3" font-family="Times,serif" font-size="14.00">is_logged_in</text>
<text text-anchor="start" x="596" y="-678.3" font-family="Times,serif" font-size="14.00">is_staff</text>
<text text-anchor="start" x="596" y="-663.3" font-family="Times,serif" font-size="14.00">is_staff_filter</text>
<text text-anchor="start" x="596" y="-648.3" font-family="Times,serif" font-size="14.00">is_walkup</text>
<text text-anchor="start" x="596" y="-633.3" font-family="Times,serif" font-size="14.00">is_walkup_filter</text>
<text text-anchor="start" x="596" y="-618.3" font-family="Times,serif" font-size="14.00">login_from_external</text>
<text text-anchor="start" x="596" y="-603.3" font-family="Times,serif" font-size="14.00">maybe_run_sweepers</text>
<text text-anchor="start" x="596" y="-588.3" font-family="Times,serif" font-size="14.00">redirect_after_login</text>
<text text-anchor="start" x="596" y="-573.3" font-family="Times,serif" font-size="14.00">redirect_after_reset_token</text>
<text text-anchor="start" x="596" y="-558.3" font-family="Times,serif" font-size="14.00">reset_shopping</text>
<text text-anchor="start" x="596" y="-543.3" font-family="Times,serif" font-size="14.00">return_after_login</text>
<text text-anchor="start" x="596" y="-528.3" font-family="Times,serif" font-size="14.00">session_expired</text>
<text text-anchor="start" x="596" y="-513.3" font-family="Times,serif" font-size="14.00">set_globals</text>
<text text-anchor="start" x="596" y="-498.3" font-family="Times,serif" font-size="14.00">set_order_in_progress</text>
<text text-anchor="start" x="596" y="-483.3" font-family="Times,serif" font-size="14.00">temporarily_unavailable</text>
<polyline fill="none" stroke="black" points="588,-475.5 759,-475.5 "/>
<text text-anchor="start" x="596" y="-460.3" font-family="Times,serif" font-size="14.00">new_session?</text>
<polyline fill="none" stroke="black" points="588,-452.5 759,-452.5 "/>
<text text-anchor="start" x="596" y="-437.3" font-family="Times,serif" font-size="14.00">_layout</text>
<text text-anchor="start" x="596" y="-422.3" font-family="Times,serif" font-size="14.00">maintenance_mode?</text>
<text text-anchor="start" x="596" y="-407.3" font-family="Times,serif" font-size="14.00">strict_transport_security</text>
</g>
<!-- OrdersController -->
<g id="node6" class="node"><title>OrdersController</title>
<path fill="none" stroke="black" d="M33,-798.5C33,-798.5 118,-798.5 118,-798.5 124,-798.5 130,-804.5 130,-810.5 130,-810.5 130,-909.5 130,-909.5 130,-915.5 124,-921.5 118,-921.5 118,-921.5 33,-921.5 33,-921.5 27,-921.5 21,-915.5 21,-909.5 21,-909.5 21,-810.5 21,-810.5 21,-804.5 27,-798.5 33,-798.5"/>
<text text-anchor="middle" x="75.5" y="-906.3" font-family="Times,serif" font-size="14.00">OrdersController</text>
<polyline fill="none" stroke="black" points="21,-898.5 130,-898.5 "/>
<text text-anchor="start" x="29" y="-883.3" font-family="Times,serif" font-size="14.00">index</text>
<text text-anchor="start" x="29" y="-868.3" font-family="Times,serif" font-size="14.00">show</text>
<text text-anchor="start" x="29" y="-853.3" font-family="Times,serif" font-size="14.00">update</text>
<polyline fill="none" stroke="black" points="21,-845.5 130,-845.5 "/>
<polyline fill="none" stroke="black" points="21,-821.5 130,-821.5 "/>
<text text-anchor="start" x="29" y="-806.3" font-family="Times,serif" font-size="14.00">_layout</text>
</g>
<!-- VouchertypesController -->
<g id="node7" class="node"><title>VouchertypesController</title>
<path fill="none" stroke="black" d="M810,-483.5C810,-483.5 980,-483.5 980,-483.5 986,-483.5 992,-489.5 992,-495.5 992,-495.5 992,-699.5 992,-699.5 992,-705.5 986,-711.5 980,-711.5 980,-711.5 810,-711.5 810,-711.5 804,-711.5 798,-705.5 798,-699.5 798,-699.5 798,-495.5 798,-495.5 798,-489.5 804,-483.5 810,-483.5"/>
<text text-anchor="middle" x="895" y="-696.3" font-family="Times,serif" font-size="14.00">VouchertypesController</text>
<polyline fill="none" stroke="black" points="798,-688.5 992,-688.5 "/>
<text text-anchor="start" x="806" y="-673.3" font-family="Times,serif" font-size="14.00">clone</text>
<text text-anchor="start" x="806" y="-658.3" font-family="Times,serif" font-size="14.00">create</text>
<text text-anchor="start" x="806" y="-643.3" font-family="Times,serif" font-size="14.00">destroy</text>
<text text-anchor="start" x="806" y="-628.3" font-family="Times,serif" font-size="14.00">edit</text>
<text text-anchor="start" x="806" y="-613.3" font-family="Times,serif" font-size="14.00">index</text>
<text text-anchor="start" x="806" y="-598.3" font-family="Times,serif" font-size="14.00">new</text>
<text text-anchor="start" x="806" y="-583.3" font-family="Times,serif" font-size="14.00">update</text>
<polyline fill="none" stroke="black" points="798,-575.5 992,-575.5 "/>
<polyline fill="none" stroke="black" points="798,-551.5 992,-551.5 "/>
<text text-anchor="start" x="806" y="-536.3" font-family="Times,serif" font-size="14.00">_layout</text>
<text text-anchor="start" x="806" y="-521.3" font-family="Times,serif" font-size="14.00">load_vouchertype</text>
<text text-anchor="start" x="806" y="-506.3" font-family="Times,serif" font-size="14.00">remember_vouchertype_season!</text>
<text text-anchor="start" x="806" y="-491.3" font-family="Times,serif" font-size="14.00">vouchertype_season</text>
</g>
<!-- SessionsController -->
<g id="node8" class="node"><title>SessionsController</title>
<path fill="none" stroke="black" d="M180,-504.5C180,-504.5 323,-504.5 323,-504.5 329,-504.5 335,-510.5 335,-516.5 335,-516.5 335,-674.5 335,-674.5 335,-680.5 329,-686.5 323,-686.5 323,-686.5 180,-686.5 180,-686.5 174,-686.5 168,-680.5 168,-674.5 168,-674.5 168,-516.5 168,-516.5 168,-510.5 174,-504.5 180,-504.5"/>
<text text-anchor="middle" x="251.5" y="-671.3" font-family="Times,serif" font-size="14.00">SessionsController</text>
<polyline fill="none" stroke="black" points="168,-663.5 335,-663.5 "/>
<text text-anchor="start" x="176" y="-648.3" font-family="Times,serif" font-size="14.00">create</text>
<text text-anchor="start" x="176" y="-633.3" font-family="Times,serif" font-size="14.00">create_from_secret</text>
<text text-anchor="start" x="176" y="-618.3" font-family="Times,serif" font-size="14.00">destroy</text>
<text text-anchor="start" x="176" y="-603.3" font-family="Times,serif" font-size="14.00">new</text>
<text text-anchor="start" x="176" y="-588.3" font-family="Times,serif" font-size="14.00">new_from_secret</text>
<text text-anchor="start" x="176" y="-573.3" font-family="Times,serif" font-size="14.00">reenable_admin</text>
<text text-anchor="start" x="176" y="-558.3" font-family="Times,serif" font-size="14.00">temporarily_disable_admin</text>
<polyline fill="none" stroke="black" points="168,-550.5 335,-550.5 "/>
<text text-anchor="start" x="176" y="-535.3" font-family="Times,serif" font-size="14.00">note_failed_signin</text>
<polyline fill="none" stroke="black" points="168,-527.5 335,-527.5 "/>
<text text-anchor="start" x="176" y="-512.3" font-family="Times,serif" font-size="14.00">_layout</text>
</g>
<!-- InfoController -->
<g id="node9" class="node"><title>InfoController</title>
<path fill="none" stroke="black" d="M1020,-1029.5C1020,-1029.5 1091,-1029.5 1091,-1029.5 1097,-1029.5 1103,-1035.5 1103,-1041.5 1103,-1041.5 1103,-1140.5 1103,-1140.5 1103,-1146.5 1097,-1152.5 1091,-1152.5 1091,-1152.5 1020,-1152.5 1020,-1152.5 1014,-1152.5 1008,-1146.5 1008,-1140.5 1008,-1140.5 1008,-1041.5 1008,-1041.5 1008,-1035.5 1014,-1029.5 1020,-1029.5"/>
<text text-anchor="middle" x="1055.5" y="-1137.3" font-family="Times,serif" font-size="14.00">InfoController</text>
<polyline fill="none" stroke="black" points="1008,-1129.5 1103,-1129.5 "/>
<text text-anchor="start" x="1016" y="-1114.3" font-family="Times,serif" font-size="14.00">availability</text>
<text text-anchor="start" x="1016" y="-1099.3" font-family="Times,serif" font-size="14.00">showdates</text>
<text text-anchor="start" x="1016" y="-1084.3" font-family="Times,serif" font-size="14.00">ticket_rss</text>
<polyline fill="none" stroke="black" points="1008,-1076.5 1103,-1076.5 "/>
<polyline fill="none" stroke="black" points="1008,-1052.5 1103,-1052.5 "/>
<text text-anchor="start" x="1016" y="-1037.3" font-family="Times,serif" font-size="14.00">_layout</text>
</g>
<!-- ShowsController -->
<g id="node10" class="node"><title>ShowsController</title>
<path fill="none" stroke="black" d="M33,-294.5C33,-294.5 117,-294.5 117,-294.5 123,-294.5 129,-300.5 129,-306.5 129,-306.5 129,-450.5 129,-450.5 129,-456.5 123,-462.5 117,-462.5 117,-462.5 33,-462.5 33,-462.5 27,-462.5 21,-456.5 21,-450.5 21,-450.5 21,-306.5 21,-306.5 21,-300.5 27,-294.5 33,-294.5"/>
<text text-anchor="middle" x="75" y="-447.3" font-family="Times,serif" font-size="14.00">ShowsController</text>
<polyline fill="none" stroke="black" points="21,-439.5 129,-439.5 "/>
<text text-anchor="start" x="29" y="-424.3" font-family="Times,serif" font-size="14.00">create</text>
<text text-anchor="start" x="29" y="-409.3" font-family="Times,serif" font-size="14.00">destroy</text>
<text text-anchor="start" x="29" y="-394.3" font-family="Times,serif" font-size="14.00">edit</text>
<text text-anchor="start" x="29" y="-379.3" font-family="Times,serif" font-size="14.00">index</text>
<text text-anchor="start" x="29" y="-364.3" font-family="Times,serif" font-size="14.00">new</text>
<text text-anchor="start" x="29" y="-349.3" font-family="Times,serif" font-size="14.00">update</text>
<polyline fill="none" stroke="black" points="21,-341.5 129,-341.5 "/>
<polyline fill="none" stroke="black" points="21,-317.5 129,-317.5 "/>
<text text-anchor="start" x="29" y="-302.3" font-family="Times,serif" font-size="14.00">_layout</text>
</g>
<!-- ShowdatesController -->
<g id="node11" class="node"><title>ShowdatesController</title>
<path fill="none" stroke="black" d="M12,-504.5C12,-504.5 119,-504.5 119,-504.5 125,-504.5 131,-510.5 131,-516.5 131,-516.5 131,-660.5 131,-660.5 131,-666.5 125,-672.5 119,-672.5 119,-672.5 12,-672.5 12,-672.5 6,-672.5 0,-666.5 0,-660.5 0,-660.5 0,-516.5 0,-516.5 0,-510.5 6,-504.5 12,-504.5"/>
<text text-anchor="middle" x="65.5" y="-657.3" font-family="Times,serif" font-size="14.00">ShowdatesController</text>
<polyline fill="none" stroke="black" points="0,-649.5 131,-649.5 "/>
<text text-anchor="start" x="8" y="-634.3" font-family="Times,serif" font-size="14.00">create</text>
<text text-anchor="start" x="8" y="-619.3" font-family="Times,serif" font-size="14.00">destroy</text>
<text text-anchor="start" x="8" y="-604.3" font-family="Times,serif" font-size="14.00">edit</text>
<text text-anchor="start" x="8" y="-589.3" font-family="Times,serif" font-size="14.00">new</text>
<text text-anchor="start" x="8" y="-574.3" font-family="Times,serif" font-size="14.00">update</text>
<polyline fill="none" stroke="black" points="0,-566.5 131,-566.5 "/>
<polyline fill="none" stroke="black" points="0,-542.5 131,-542.5 "/>
<text text-anchor="start" x="8" y="-527.3" font-family="Times,serif" font-size="14.00">_layout</text>
<text text-anchor="start" x="8" y="-512.3" font-family="Times,serif" font-size="14.00">load_show</text>
</g>
<!-- VouchersController -->
<g id="node12" class="node"><title>VouchersController</title>
<path fill="none" stroke="black" d="M810,-756.5C810,-756.5 974,-756.5 974,-756.5 980,-756.5 986,-762.5 986,-768.5 986,-768.5 986,-972.5 986,-972.5 986,-978.5 980,-984.5 974,-984.5 974,-984.5 810,-984.5 810,-984.5 804,-984.5 798,-978.5 798,-972.5 798,-972.5 798,-768.5 798,-768.5 798,-762.5 804,-756.5 810,-756.5"/>
<text text-anchor="middle" x="892" y="-969.3" font-family="Times,serif" font-size="14.00">VouchersController</text>
<polyline fill="none" stroke="black" points="798,-961.5 986,-961.5 "/>
<text text-anchor="start" x="806" y="-946.3" font-family="Times,serif" font-size="14.00">cancel_multiple</text>
<text text-anchor="start" x="806" y="-931.3" font-family="Times,serif" font-size="14.00">confirm_multiple</text>
<text text-anchor="start" x="806" y="-916.3" font-family="Times,serif" font-size="14.00">create</text>
<text text-anchor="start" x="806" y="-901.3" font-family="Times,serif" font-size="14.00">index</text>
<text text-anchor="start" x="806" y="-886.3" font-family="Times,serif" font-size="14.00">new</text>
<text text-anchor="start" x="806" y="-871.3" font-family="Times,serif" font-size="14.00">transfer_multiple</text>
<text text-anchor="start" x="806" y="-856.3" font-family="Times,serif" font-size="14.00">update_comment</text>
<text text-anchor="start" x="806" y="-841.3" font-family="Times,serif" font-size="14.00">update_shows</text>
<polyline fill="none" stroke="black" points="798,-833.5 986,-833.5 "/>
<polyline fill="none" stroke="black" points="798,-809.5 986,-809.5 "/>
<text text-anchor="start" x="806" y="-794.3" font-family="Times,serif" font-size="14.00">_layout</text>
<text text-anchor="start" x="806" y="-779.3" font-family="Times,serif" font-size="14.00">errors_for_voucherlist_as_html</text>
<text text-anchor="start" x="806" y="-764.3" font-family="Times,serif" font-size="14.00">owns_voucher_or_is_boxoffice</text>
</g>
<!-- WalkupSalesController -->
<g id="node13" class="node"><title>WalkupSalesController</title>
<path fill="none" stroke="black" d="M957,-0.5C957,-0.5 1077,-0.5 1077,-0.5 1083,-0.5 1089,-6.5 1089,-12.5 1089,-12.5 1089,-126.5 1089,-126.5 1089,-132.5 1083,-138.5 1077,-138.5 1077,-138.5 957,-138.5 957,-138.5 951,-138.5 945,-132.5 945,-126.5 945,-126.5 945,-12.5 945,-12.5 945,-6.5 951,-0.5 957,-0.5"/>
<text text-anchor="middle" x="1017" y="-123.3" font-family="Times,serif" font-size="14.00">WalkupSalesController</text>
<polyline fill="none" stroke="black" points="945,-115.5 1089,-115.5 "/>
<text text-anchor="start" x="953" y="-100.3" font-family="Times,serif" font-size="14.00">create</text>
<text text-anchor="start" x="953" y="-85.3" font-family="Times,serif" font-size="14.00">report</text>
<text text-anchor="start" x="953" y="-70.3" font-family="Times,serif" font-size="14.00">show</text>
<text text-anchor="start" x="953" y="-55.3" font-family="Times,serif" font-size="14.00">update</text>
<polyline fill="none" stroke="black" points="945,-47.5 1089,-47.5 "/>
<polyline fill="none" stroke="black" points="945,-23.5 1089,-23.5 "/>
<text text-anchor="start" x="953" y="-8.3" font-family="Times,serif" font-size="14.00">_layout</text>
</g>
<!-- ReportsController -->
<g id="node14" class="node"><title>ReportsController</title>
<path fill="none" stroke="black" d="M810,-189.5C810,-189.5 968,-189.5 968,-189.5 974,-189.5 980,-195.5 980,-201.5 980,-201.5 980,-420.5 980,-420.5 980,-426.5 974,-432.5 968,-432.5 968,-432.5 810,-432.5 810,-432.5 804,-432.5 798,-426.5 798,-420.5 798,-420.5 798,-201.5 798,-201.5 798,-195.5 804,-189.5 810,-189.5"/>
<text text-anchor="middle" x="889" y="-417.3" font-family="Times,serif" font-size="14.00">ReportsController</text>
<polyline fill="none" stroke="black" points="798,-409.5 980,-409.5 "/>
<text text-anchor="start" x="806" y="-394.3" font-family="Times,serif" font-size="14.00">advance_sales</text>
<text text-anchor="start" x="806" y="-379.3" font-family="Times,serif" font-size="14.00">attendance</text>
<text text-anchor="start" x="806" y="-364.3" font-family="Times,serif" font-size="14.00">index</text>
<text text-anchor="start" x="806" y="-349.3" font-family="Times,serif" font-size="14.00">mark_fulfilled</text>
<text text-anchor="start" x="806" y="-334.3" font-family="Times,serif" font-size="14.00">retail</text>
<text text-anchor="start" x="806" y="-319.3" font-family="Times,serif" font-size="14.00">revenue_by_payment_method</text>
<text text-anchor="start" x="806" y="-304.3" font-family="Times,serif" font-size="14.00">run_special</text>
<text text-anchor="start" x="806" y="-289.3" font-family="Times,serif" font-size="14.00">showdate_sales</text>
<text text-anchor="start" x="806" y="-274.3" font-family="Times,serif" font-size="14.00">subscriber_details</text>
<text text-anchor="start" x="806" y="-259.3" font-family="Times,serif" font-size="14.00">unfulfilled_orders</text>
<polyline fill="none" stroke="black" points="798,-251.5 980,-251.5 "/>
<polyline fill="none" stroke="black" points="798,-227.5 980,-227.5 "/>
<text text-anchor="start" x="806" y="-212.3" font-family="Times,serif" font-size="14.00">_layout</text>
<text text-anchor="start" x="806" y="-197.3" font-family="Times,serif" font-size="14.00">validate_report_type</text>
</g>
<!-- TxnsController -->
<g id="node15" class="node"><title>TxnsController</title>
<path fill="none" stroke="black" d="M873,-1029.5C873,-1029.5 948,-1029.5 948,-1029.5 954,-1029.5 960,-1035.5 960,-1041.5 960,-1041.5 960,-1110.5 960,-1110.5 960,-1116.5 954,-1122.5 948,-1122.5 948,-1122.5 873,-1122.5 873,-1122.5 867,-1122.5 861,-1116.5 861,-1110.5 861,-1110.5 861,-1041.5 861,-1041.5 861,-1035.5 867,-1029.5 873,-1029.5"/>
<text text-anchor="middle" x="910.5" y="-1107.3" font-family="Times,serif" font-size="14.00">TxnsController</text>
<polyline fill="none" stroke="black" points="861,-1099.5 960,-1099.5 "/>
<text text-anchor="start" x="869" y="-1084.3" font-family="Times,serif" font-size="14.00">index</text>
<polyline fill="none" stroke="black" points="861,-1076.5 960,-1076.5 "/>
<polyline fill="none" stroke="black" points="861,-1052.5 960,-1052.5 "/>
<text text-anchor="start" x="869" y="-1037.3" font-family="Times,serif" font-size="14.00">_layout</text>
</g>
<!-- StoreController -->
<g id="node16" class="node"><title>StoreController</title>
<path fill="none" stroke="black" d="M369,-798.5C369,-798.5 533,-798.5 533,-798.5 539,-798.5 545,-804.5 545,-810.5 545,-810.5 545,-1269.5 545,-1269.5 545,-1275.5 539,-1281.5 533,-1281.5 533,-1281.5 369,-1281.5 369,-1281.5 363,-1281.5 357,-1275.5 357,-1269.5 357,-1269.5 357,-810.5 357,-810.5 357,-804.5 363,-798.5 369,-798.5"/>
<text text-anchor="middle" x="451" y="-1266.3" font-family="Times,serif" font-size="14.00">StoreController</text>
<polyline fill="none" stroke="black" points="357,-1258.5 545,-1258.5 "/>
<text text-anchor="start" x="365" y="-1243.3" font-family="Times,serif" font-size="14.00">cancel</text>
<text text-anchor="start" x="365" y="-1228.3" font-family="Times,serif" font-size="14.00">checkout</text>
<text text-anchor="start" x="365" y="-1213.3" font-family="Times,serif" font-size="14.00">donate</text>
<text text-anchor="start" x="365" y="-1198.3" font-family="Times,serif" font-size="14.00">donate_to_fund</text>
<text text-anchor="start" x="365" y="-1183.3" font-family="Times,serif" font-size="14.00">index</text>
<text text-anchor="start" x="365" y="-1168.3" font-family="Times,serif" font-size="14.00">place_order</text>
<text text-anchor="start" x="365" y="-1153.3" font-family="Times,serif" font-size="14.00">process_cart</text>
<text text-anchor="start" x="365" y="-1138.3" font-family="Times,serif" font-size="14.00">process_donation</text>
<text text-anchor="start" x="365" y="-1123.3" font-family="Times,serif" font-size="14.00">shipping_address</text>
<text text-anchor="start" x="365" y="-1108.3" font-family="Times,serif" font-size="14.00">subscribe</text>
<polyline fill="none" stroke="black" points="357,-1100.5 545,-1100.5 "/>
<polyline fill="none" stroke="black" points="357,-1076.5 545,-1076.5 "/>
<text text-anchor="start" x="365" y="-1061.3" font-family="Times,serif" font-size="14.00">_layout</text>
<text text-anchor="start" x="365" y="-1046.3" font-family="Times,serif" font-size="14.00">add_donation_to_cart</text>
<text text-anchor="start" x="365" y="-1031.3" font-family="Times,serif" font-size="14.00">add_retail_items_to_cart</text>
<text text-anchor="start" x="365" y="-1016.3" font-family="Times,serif" font-size="14.00">add_service_charge_to_cart</text>
<text text-anchor="start" x="365" y="-1001.3" font-family="Times,serif" font-size="14.00">finalize_order</text>
<text text-anchor="start" x="365" y="-986.3" font-family="Times,serif" font-size="14.00">order_is_not_empty</text>
<text text-anchor="start" x="365" y="-971.3" font-family="Times,serif" font-size="14.00">purchasemethod_from_params</text>
<text text-anchor="start" x="365" y="-956.3" font-family="Times,serif" font-size="14.00">recipient_from_params</text>
<text text-anchor="start" x="365" y="-941.3" font-family="Times,serif" font-size="14.00">redirect_to_checkout</text>
<text text-anchor="start" x="365" y="-926.3" font-family="Times,serif" font-size="14.00">referer_target</text>
<text text-anchor="start" x="365" y="-911.3" font-family="Times,serif" font-size="14.00">resolve_customer_in_url</text>
<text text-anchor="start" x="365" y="-896.3" font-family="Times,serif" font-size="14.00">set_customer</text>
<text text-anchor="start" x="365" y="-881.3" font-family="Times,serif" font-size="14.00">setup_for_showdate</text>
<text text-anchor="start" x="365" y="-866.3" font-family="Times,serif" font-size="14.00">setup_ticket_menus_for_admin</text>
<text text-anchor="start" x="365" y="-851.3" font-family="Times,serif" font-size="14.00">setup_ticket_menus_for_patron</text>
<text text-anchor="start" x="365" y="-836.3" font-family="Times,serif" font-size="14.00">showdate_from_default</text>
<text text-anchor="start" x="365" y="-821.3" font-family="Times,serif" font-size="14.00">showdate_from_params</text>
<text text-anchor="start" x="365" y="-806.3" font-family="Times,serif" font-size="14.00">showdate_from_show_params</text>
</g>
<!-- SeatmapsController -->
<g id="node17" class="node"><title>SeatmapsController</title>
<path fill="none" stroke="black" d="M642,-945.5C642,-945.5 743,-945.5 743,-945.5 749,-945.5 755,-951.5 755,-957.5 755,-957.5 755,-1116.5 755,-1116.5 755,-1122.5 749,-1128.5 743,-1128.5 743,-1128.5 642,-1128.5 642,-1128.5 636,-1128.5 630,-1122.5 630,-1116.5 630,-1116.5 630,-957.5 630,-957.5 630,-951.5 636,-945.5 642,-945.5"/>
<text text-anchor="middle" x="692.5" y="-1113.3" font-family="Times,serif" font-size="14.00">SeatmapsController</text>
<polyline fill="none" stroke="black" points="630,-1105.5 755,-1105.5 "/>
<text text-anchor="start" x="638" y="-1090.3" font-family="Times,serif" font-size="14.00">check_image</text>
<text text-anchor="start" x="638" y="-1075.3" font-family="Times,serif" font-size="14.00">create</text>
<text text-anchor="start" x="638" y="-1060.3" font-family="Times,serif" font-size="14.00">destroy</text>
<text text-anchor="start" x="638" y="-1045.3" font-family="Times,serif" font-size="14.00">index</text>
<text text-anchor="start" x="638" y="-1030.3" font-family="Times,serif" font-size="14.00">seatmap</text>
<text text-anchor="start" x="638" y="-1015.3" font-family="Times,serif" font-size="14.00">show</text>
<text text-anchor="start" x="638" y="-1000.3" font-family="Times,serif" font-size="14.00">update</text>
<polyline fill="none" stroke="black" points="630,-992.5 755,-992.5 "/>
<polyline fill="none" stroke="black" points="630,-968.5 755,-968.5 "/>
<text text-anchor="start" x="638" y="-953.3" font-family="Times,serif" font-size="14.00">_layout</text>
</g>
<!-- DonationsController -->
<g id="node18" class="node"><title>DonationsController</title>
<path fill="none" stroke="black" d="M243,-42.5C243,-42.5 353,-42.5 353,-42.5 359,-42.5 365,-48.5 365,-54.5 365,-54.5 365,-198.5 365,-198.5 365,-204.5 359,-210.5 353,-210.5 353,-210.5 243,-210.5 243,-210.5 237,-210.5 231,-204.5 231,-198.5 231,-198.5 231,-54.5 231,-54.5 231,-48.5 237,-42.5 243,-42.5"/>
<text text-anchor="middle" x="298" y="-195.3" font-family="Times,serif" font-size="14.00">DonationsController</text>
<polyline fill="none" stroke="black" points="231,-187.5 365,-187.5 "/>
<text text-anchor="start" x="239" y="-172.3" font-family="Times,serif" font-size="14.00">create</text>
<text text-anchor="start" x="239" y="-157.3" font-family="Times,serif" font-size="14.00">index</text>
<text text-anchor="start" x="239" y="-142.3" font-family="Times,serif" font-size="14.00">new</text>
<text text-anchor="start" x="239" y="-127.3" font-family="Times,serif" font-size="14.00">update</text>
<text text-anchor="start" x="239" y="-112.3" font-family="Times,serif" font-size="14.00">update_comment_for</text>
<polyline fill="none" stroke="black" points="231,-104.5 365,-104.5 "/>
<polyline fill="none" stroke="black" points="231,-80.5 365,-80.5 "/>
<text text-anchor="start" x="239" y="-65.3" font-family="Times,serif" font-size="14.00">_layout</text>
<text text-anchor="start" x="239" y="-50.3" font-family="Times,serif" font-size="14.00">load_customer</text>
</g>
<!-- OptionsController -->
<g id="node19" class="node"><title>OptionsController</title>
<path fill="none" stroke="black" d="M495,-21.5C495,-21.5 632,-21.5 632,-21.5 638,-21.5 644,-27.5 644,-33.5 644,-33.5 644,-147.5 644,-147.5 644,-153.5 638,-159.5 632,-159.5 632,-159.5 495,-159.5 495,-159.5 489,-159.5 483,-153.5 483,-147.5 483,-147.5 483,-33.5 483,-33.5 483,-27.5 489,-21.5 495,-21.5"/>
<text text-anchor="middle" x="563.5" y="-144.3" font-family="Times,serif" font-size="14.00">OptionsController</text>
<polyline fill="none" stroke="black" points="483,-136.5 644,-136.5 "/>
<text text-anchor="start" x="491" y="-121.3" font-family="Times,serif" font-size="14.00">download_email_template</text>
<text text-anchor="start" x="491" y="-106.3" font-family="Times,serif" font-size="14.00">email_test</text>
<text text-anchor="start" x="491" y="-91.3" font-family="Times,serif" font-size="14.00">index</text>
<text text-anchor="start" x="491" y="-76.3" font-family="Times,serif" font-size="14.00">update</text>
<polyline fill="none" stroke="black" points="483,-68.5 644,-68.5 "/>
<polyline fill="none" stroke="black" points="483,-44.5 644,-44.5 "/>
<text text-anchor="start" x="491" y="-29.3" font-family="Times,serif" font-size="14.00">_layout</text>
</g>
<!-- AccountCodesController -->
<g id="node20" class="node"><title>AccountCodesController</title>
<path fill="none" stroke="black" d="M54,-63.5C54,-63.5 182,-63.5 182,-63.5 188,-63.5 194,-69.5 194,-75.5 194,-75.5 194,-234.5 194,-234.5 194,-240.5 188,-246.5 182,-246.5 182,-246.5 54,-246.5 54,-246.5 48,-246.5 42,-240.5 42,-234.5 42,-234.5 42,-75.5 42,-75.5 42,-69.5 48,-63.5 54,-63.5"/>
<text text-anchor="middle" x="118" y="-231.3" font-family="Times,serif" font-size="14.00">AccountCodesController</text>
<polyline fill="none" stroke="black" points="42,-223.5 194,-223.5 "/>
<text text-anchor="start" x="50" y="-208.3" font-family="Times,serif" font-size="14.00">create</text>
<text text-anchor="start" x="50" y="-193.3" font-family="Times,serif" font-size="14.00">destroy</text>
<text text-anchor="start" x="50" y="-178.3" font-family="Times,serif" font-size="14.00">edit</text>
<text text-anchor="start" x="50" y="-163.3" font-family="Times,serif" font-size="14.00">index</text>
<text text-anchor="start" x="50" y="-148.3" font-family="Times,serif" font-size="14.00">new</text>
<text text-anchor="start" x="50" y="-133.3" font-family="Times,serif" font-size="14.00">update</text>
<polyline fill="none" stroke="black" points="42,-125.5 194,-125.5 "/>
<polyline fill="none" stroke="black" points="42,-101.5 194,-101.5 "/>
<text text-anchor="start" x="50" y="-86.3" font-family="Times,serif" font-size="14.00">_layout</text>
<text text-anchor="start" x="50" y="-71.3" font-family="Times,serif" font-size="14.00">account_code_params</text>
</g>
<!-- TicketSalesImportsController -->
<g id="node21" class="node"><title>TicketSalesImportsController</title>
<path fill="none" stroke="black" d="M600,-210.5C600,-210.5 754,-210.5 754,-210.5 760,-210.5 766,-216.5 766,-222.5 766,-222.5 766,-351.5 766,-351.5 766,-357.5 760,-363.5 754,-363.5 754,-363.5 600,-363.5 600,-363.5 594,-363.5 588,-357.5 588,-351.5 588,-351.5 588,-222.5 588,-222.5 588,-216.5 594,-210.5 600,-210.5"/>
<text text-anchor="middle" x="677" y="-348.3" font-family="Times,serif" font-size="14.00">TicketSalesImportsController</text>
<polyline fill="none" stroke="black" points="588,-340.5 766,-340.5 "/>
<text text-anchor="start" x="596" y="-325.3" font-family="Times,serif" font-size="14.00">create</text>
<text text-anchor="start" x="596" y="-310.3" font-family="Times,serif" font-size="14.00">destroy</text>
<text text-anchor="start" x="596" y="-295.3" font-family="Times,serif" font-size="14.00">edit</text>
<text text-anchor="start" x="596" y="-280.3" font-family="Times,serif" font-size="14.00">index</text>
<text text-anchor="start" x="596" y="-265.3" font-family="Times,serif" font-size="14.00">update</text>
<polyline fill="none" stroke="black" points="588,-257.5 766,-257.5 "/>
<polyline fill="none" stroke="black" points="588,-233.5 766,-233.5 "/>
<text text-anchor="start" x="596" y="-218.3" font-family="Times,serif" font-size="14.00">_layout</text>
</g>
<!-- CustomersController -->
<g id="node22" class="node"><title>CustomersController</title>
<path fill="none" stroke="black" d="M390,-252.5C390,-252.5 544,-252.5 544,-252.5 550,-252.5 556,-258.5 556,-264.5 556,-264.5 556,-738.5 556,-738.5 556,-744.5 550,-750.5 544,-750.5 544,-750.5 390,-750.5 390,-750.5 384,-750.5 378,-744.5 378,-738.5 378,-738.5 378,-264.5 378,-264.5 378,-258.5 384,-252.5 390,-252.5"/>
<text text-anchor="middle" x="467" y="-735.3" font-family="Times,serif" font-size="14.00">CustomersController</text>
<polyline fill="none" stroke="black" points="378,-727.5 556,-727.5 "/>
<text text-anchor="start" x="386" y="-712.3" font-family="Times,serif" font-size="14.00">admin_new</text>
<text text-anchor="start" x="386" y="-697.3" font-family="Times,serif" font-size="14.00">auto_complete_for_customer</text>
<text text-anchor="start" x="386" y="-682.3" font-family="Times,serif" font-size="14.00">change_password_for</text>
<text text-anchor="start" x="386" y="-667.3" font-family="Times,serif" font-size="14.00">change_secret_question</text>
<text text-anchor="start" x="386" y="-652.3" font-family="Times,serif" font-size="14.00">create</text>
<text text-anchor="start" x="386" y="-637.3" font-family="Times,serif" font-size="14.00">edit</text>
<text text-anchor="start" x="386" y="-622.3" font-family="Times,serif" font-size="14.00">finalize_merge</text>
<text text-anchor="start" x="386" y="-607.3" font-family="Times,serif" font-size="14.00">forgot_password</text>
<text text-anchor="start" x="386" y="-592.3" font-family="Times,serif" font-size="14.00">guest_checkout</text>
<text text-anchor="start" x="386" y="-577.3" font-family="Times,serif" font-size="14.00">guest_checkout_create</text>
<text text-anchor="start" x="386" y="-562.3" font-family="Times,serif" font-size="14.00">index</text>
<text text-anchor="start" x="386" y="-547.3" font-family="Times,serif" font-size="14.00">list_duplicate</text>
<text text-anchor="start" x="386" y="-532.3" font-family="Times,serif" font-size="14.00">merge</text>
<text text-anchor="start" x="386" y="-517.3" font-family="Times,serif" font-size="14.00">new</text>
<text text-anchor="start" x="386" y="-502.3" font-family="Times,serif" font-size="14.00">reset_token</text>
<text text-anchor="start" x="386" y="-487.3" font-family="Times,serif" font-size="14.00">show</text>
<text text-anchor="start" x="386" y="-472.3" font-family="Times,serif" font-size="14.00">update</text>
<text text-anchor="start" x="386" y="-457.3" font-family="Times,serif" font-size="14.00">user_create</text>
<polyline fill="none" stroke="black" points="378,-449.5 556,-449.5 "/>
<polyline fill="none" stroke="black" points="378,-425.5 556,-425.5 "/>
<text text-anchor="start" x="386" y="-410.3" font-family="Times,serif" font-size="14.00">_layout</text>
<text text-anchor="start" x="386" y="-395.3" font-family="Times,serif" font-size="14.00">continue_as_existing_guest</text>
<text text-anchor="start" x="386" y="-380.3" font-family="Times,serif" font-size="14.00">continue_as_new_guest</text>
<text text-anchor="start" x="386" y="-365.3" font-family="Times,serif" font-size="14.00">delete_admin_only_attributes</text>
<text text-anchor="start" x="386" y="-350.3" font-family="Times,serif" font-size="14.00">do_automatic_merge</text>
<text text-anchor="start" x="386" y="-335.3" font-family="Times,serif" font-size="14.00">do_deletions</text>
<text text-anchor="start" x="386" y="-320.3" font-family="Times,serif" font-size="14.00">generate_token</text>
<text text-anchor="start" x="386" y="-305.3" font-family="Times,serif" font-size="14.00">is_myself_or_staff</text>
<text text-anchor="start" x="386" y="-290.3" font-family="Times,serif" font-size="14.00">redirect_to_last_list</text>
<text text-anchor="start" x="386" y="-275.3" font-family="Times,serif" font-size="14.00">redirect_to_real_login</text>
<text text-anchor="start" x="386" y="-260.3" font-family="Times,serif" font-size="14.00">send_magic_link</text>
</g>
</g>
</svg>
