<?xml version="1.0" encoding="UTF-8" standalone="no"?>
<!DOCTYPE svg PUBLIC "-//W3C//DTD SVG 1.1//EN"
 "http://www.w3.org/Graphics/SVG/1.1/DTD/svg11.dtd">
<!-- Generated by graphviz version 2.38.0 (20140413.2041)
 -->
<!-- Title: controllers_diagram Pages: 1 -->
<svg width="1084pt" height="1198pt"
 viewBox="0.00 0.00 1084.00 1197.50" xmlns="http://www.w3.org/2000/svg" xmlns:xlink="http://www.w3.org/1999/xlink">
<g id="graph0" class="graph" transform="scale(1 1) rotate(0) translate(529 668.5)">
<title>controllers_diagram</title>
<polygon fill="none" stroke="none" points="-529,529 -529,-668.5 555,-668.5 555,529 -529,529"/>
<!-- _diagram_info -->
<g id="node1" class="node"><title>_diagram_info</title>
<text text-anchor="start" x="323" y="398.4" font-family="Times,serif" font-size="13.00">Controllers diagram</text>
<text text-anchor="start" x="323" y="412.4" font-family="Times,serif" font-size="13.00">Date: Oct 20 2017 &#45; 14:35</text>
<text text-anchor="start" x="323" y="426.4" font-family="Times,serif" font-size="13.00">Migration version: 20170628202024</text>
<text text-anchor="start" x="323" y="440.4" font-family="Times,serif" font-size="13.00">Generated by RailRoady DEV</text>
<text text-anchor="start" x="323" y="454.4" font-family="Times,serif" font-size="13.00">http://railroady.prestonlee.com</text>
</g>
<!-- LabelsController -->
<g id="node2" class="node"><title>LabelsController</title>
<path fill="none" stroke="black" d="M-471,210C-471,210 -387,210 -387,210 -381,210 -375,204 -375,198 -375,198 -375,54 -375,54 -375,48 -381,42 -387,42 -387,42 -471,42 -471,42 -477,42 -483,48 -483,54 -483,54 -483,198 -483,198 -483,204 -477,210 -471,210"/>
<text text-anchor="middle" x="-429" y="57.2" font-family="Times,serif" font-size="14.00">LabelsController</text>
<polyline fill="none" stroke="black" points="-483,65 -375,65 "/>
<text text-anchor="start" x="-475" y="80.2" font-family="Times,serif" font-size="14.00">create</text>
<text text-anchor="start" x="-475" y="95.2" font-family="Times,serif" font-size="14.00">destroy</text>
<text text-anchor="start" x="-475" y="110.2" font-family="Times,serif" font-size="14.00">edit</text>
<text text-anchor="start" x="-475" y="125.2" font-family="Times,serif" font-size="14.00">index</text>
<text text-anchor="start" x="-475" y="140.2" font-family="Times,serif" font-size="14.00">new</text>
<text text-anchor="start" x="-475" y="155.2" font-family="Times,serif" font-size="14.00">update</text>
<polyline fill="none" stroke="black" points="-483,163 -375,163 "/>
<polyline fill="none" stroke="black" points="-483,187 -375,187 "/>
<text text-anchor="start" x="-475" y="202.2" font-family="Times,serif" font-size="14.00">_layout</text>
</g>
<!-- SessionsController -->
<g id="node3" class="node"><title>SessionsController</title>
<path fill="none" stroke="black" d="M347.5,62C347.5,62 490.5,62 490.5,62 496.5,62 502.5,56 502.5,50 502.5,50 502.5,-108 502.5,-108 502.5,-114 496.5,-120 490.5,-120 490.5,-120 347.5,-120 347.5,-120 341.5,-120 335.5,-114 335.5,-108 335.5,-108 335.5,50 335.5,50 335.5,56 341.5,62 347.5,62"/>
<text text-anchor="middle" x="419" y="-104.8" font-family="Times,serif" font-size="14.00">SessionsController</text>
<polyline fill="none" stroke="black" points="335.5,-97 502.5,-97 "/>
<text text-anchor="start" x="343.5" y="-81.8" font-family="Times,serif" font-size="14.00">create</text>
<text text-anchor="start" x="343.5" y="-66.8" font-family="Times,serif" font-size="14.00">create_from_secret</text>
<text text-anchor="start" x="343.5" y="-51.8" font-family="Times,serif" font-size="14.00">destroy</text>
<text text-anchor="start" x="343.5" y="-36.8" font-family="Times,serif" font-size="14.00">new</text>
<text text-anchor="start" x="343.5" y="-21.8" font-family="Times,serif" font-size="14.00">new_from_secret</text>
<text text-anchor="start" x="343.5" y="-6.8" font-family="Times,serif" font-size="14.00">reenable_admin</text>
<text text-anchor="start" x="343.5" y="8.2" font-family="Times,serif" font-size="14.00">temporarily_disable_admin</text>
<polyline fill="none" stroke="black" points="335.5,16 502.5,16 "/>
<text text-anchor="start" x="343.5" y="31.2" font-family="Times,serif" font-size="14.00">note_failed_signin</text>
<polyline fill="none" stroke="black" points="335.5,39 502.5,39 "/>
<text text-anchor="start" x="343.5" y="54.2" font-family="Times,serif" font-size="14.00">_layout</text>
</g>
<!-- ImportsController -->
<g id="node4" class="node"><title>ImportsController</title>
<path fill="none" stroke="black" d="M348,335C348,335 488,335 488,335 494,335 500,329 500,323 500,323 500,119 500,119 500,113 494,107 488,107 488,107 348,107 348,107 342,107 336,113 336,119 336,119 336,323 336,323 336,329 342,335 348,335"/>
<text text-anchor="middle" x="418" y="122.2" font-family="Times,serif" font-size="14.00">ImportsController</text>
<polyline fill="none" stroke="black" points="336,130 500,130 "/>
<text text-anchor="start" x="344" y="145.2" font-family="Times,serif" font-size="14.00">create</text>
<text text-anchor="start" x="344" y="160.2" font-family="Times,serif" font-size="14.00">destroy</text>
<text text-anchor="start" x="344" y="175.2" font-family="Times,serif" font-size="14.00">download_invalid</text>
<text text-anchor="start" x="344" y="190.2" font-family="Times,serif" font-size="14.00">edit</text>
<text text-anchor="start" x="344" y="205.2" font-family="Times,serif" font-size="14.00">help</text>
<text text-anchor="start" x="344" y="220.2" font-family="Times,serif" font-size="14.00">index</text>
<text text-anchor="start" x="344" y="235.2" font-family="Times,serif" font-size="14.00">new</text>
<text text-anchor="start" x="344" y="250.2" font-family="Times,serif" font-size="14.00">update</text>
<polyline fill="none" stroke="black" points="336,258 500,258 "/>
<polyline fill="none" stroke="black" points="336,282 500,282 "/>
<text text-anchor="start" x="344" y="297.2" font-family="Times,serif" font-size="14.00">_layout</text>
<text text-anchor="start" x="344" y="312.2" font-family="Times,serif" font-size="14.00">delete_original_attachment</text>
<text text-anchor="start" x="344" y="327.2" font-family="Times,serif" font-size="14.00">partial_for_import</text>
</g>
<!-- ApplicationController -->
<g id="node5" class="node"><title>ApplicationController</title>
<path fill="none" stroke="black" d="M138.5,125C138.5,125 285.5,125 285.5,125 291.5,125 297.5,119 297.5,113 297.5,113 297.5,-315 297.5,-315 297.5,-321 291.5,-327 285.5,-327 285.5,-327 138.5,-327 138.5,-327 132.5,-327 126.5,-321 126.5,-315 126.5,-315 126.5,113 126.5,113 126.5,119 132.5,125 138.5,125"/>
<text text-anchor="middle" x="212" y="-311.8" font-family="Times,serif" font-size="14.00">ApplicationController</text>
<polyline fill="none" stroke="black" points="126.5,-304 297.5,-304 "/>
<text text-anchor="start" x="134.5" y="-288.8" font-family="Times,serif" font-size="14.00">create_session</text>
<text text-anchor="start" x="134.5" y="-273.8" font-family="Times,serif" font-size="14.00">download_to_excel</text>
<text text-anchor="start" x="134.5" y="-258.8" font-family="Times,serif" font-size="14.00">email_confirmation</text>
<text text-anchor="start" x="134.5" y="-243.8" font-family="Times,serif" font-size="14.00">find_cart</text>
<text text-anchor="start" x="134.5" y="-228.8" font-family="Times,serif" font-size="14.00">has_at_least_one</text>
<text text-anchor="start" x="134.5" y="-213.8" font-family="Times,serif" font-size="14.00">is_admin</text>
<text text-anchor="start" x="134.5" y="-198.8" font-family="Times,serif" font-size="14.00">is_admin_filter</text>
<text text-anchor="start" x="134.5" y="-183.8" font-family="Times,serif" font-size="14.00">is_boxoffice</text>
<text text-anchor="start" x="134.5" y="-168.8" font-family="Times,serif" font-size="14.00">is_boxoffice_filter</text>
<text text-anchor="start" x="134.5" y="-153.8" font-family="Times,serif" font-size="14.00">is_boxoffice_manager</text>
<text text-anchor="start" x="134.5" y="-138.8" font-family="Times,serif" font-size="14.00">is_boxoffice_manager_filter</text>
<text text-anchor="start" x="134.5" y="-123.8" font-family="Times,serif" font-size="14.00">is_logged_in</text>
<text text-anchor="start" x="134.5" y="-108.8" font-family="Times,serif" font-size="14.00">is_staff</text>
<text text-anchor="start" x="134.5" y="-93.8" font-family="Times,serif" font-size="14.00">is_staff_filter</text>
<text text-anchor="start" x="134.5" y="-78.8" font-family="Times,serif" font-size="14.00">is_walkup</text>
<text text-anchor="start" x="134.5" y="-63.8" font-family="Times,serif" font-size="14.00">is_walkup_filter</text>
<text text-anchor="start" x="134.5" y="-48.8" font-family="Times,serif" font-size="14.00">login_from_external</text>
<text text-anchor="start" x="134.5" y="-33.8" font-family="Times,serif" font-size="14.00">redirect_after_login</text>
<text text-anchor="start" x="134.5" y="-18.8" font-family="Times,serif" font-size="14.00">reset_session</text>
<text text-anchor="start" x="134.5" y="-3.8" font-family="Times,serif" font-size="14.00">reset_shopping</text>
<text text-anchor="start" x="134.5" y="11.2" font-family="Times,serif" font-size="14.00">return_after_login</text>
<text text-anchor="start" x="134.5" y="26.2" font-family="Times,serif" font-size="14.00">session_expired</text>
<text text-anchor="start" x="134.5" y="41.2" font-family="Times,serif" font-size="14.00">set_checkout_in_progress</text>
<text text-anchor="start" x="134.5" y="56.2" font-family="Times,serif" font-size="14.00">set_globals</text>
<text text-anchor="start" x="134.5" y="71.2" font-family="Times,serif" font-size="14.00">temporarily_unavailable</text>
<polyline fill="none" stroke="black" points="126.5,79 297.5,79 "/>
<text text-anchor="start" x="134.5" y="94.2" font-family="Times,serif" font-size="14.00">new_session?</text>
<polyline fill="none" stroke="black" points="126.5,102 297.5,102 "/>
<text text-anchor="start" x="134.5" y="117.2" font-family="Times,serif" font-size="14.00">_layout</text>
</g>
<!-- StoreController -->
<g id="node6" class="node"><title>StoreController</title>
<path fill="none" stroke="black" d="M-93,251C-93,251 71,251 71,251 77,251 83,245 83,239 83,239 83,-205 83,-205 83,-211 77,-217 71,-217 71,-217 -93,-217 -93,-217 -99,-217 -105,-211 -105,-205 -105,-205 -105,239 -105,239 -105,245 -99,251 -93,251"/>
<text text-anchor="middle" x="-11" y="-201.8" font-family="Times,serif" font-size="14.00">StoreController</text>
<polyline fill="none" stroke="black" points="-105,-194 83,-194 "/>
<text text-anchor="start" x="-97" y="-178.8" font-family="Times,serif" font-size="14.00">checkout</text>
<text text-anchor="start" x="-97" y="-163.8" font-family="Times,serif" font-size="14.00">donate</text>
<text text-anchor="start" x="-97" y="-148.8" font-family="Times,serif" font-size="14.00">donate_to_fund</text>
<text text-anchor="start" x="-97" y="-133.8" font-family="Times,serif" font-size="14.00">index</text>
<text text-anchor="start" x="-97" y="-118.8" font-family="Times,serif" font-size="14.00">place_order</text>
<text text-anchor="start" x="-97" y="-103.8" font-family="Times,serif" font-size="14.00">process_cart</text>
<text text-anchor="start" x="-97" y="-88.8" font-family="Times,serif" font-size="14.00">shipping_address</text>
<text text-anchor="start" x="-97" y="-73.8" font-family="Times,serif" font-size="14.00">subscribe</text>
<polyline fill="none" stroke="black" points="-105,-66 83,-66 "/>
<polyline fill="none" stroke="black" points="-105,-42 83,-42 "/>
<text text-anchor="start" x="-97" y="-26.8" font-family="Times,serif" font-size="14.00">_layout</text>
<text text-anchor="start" x="-97" y="-11.8" font-family="Times,serif" font-size="14.00">add_donation_to_cart</text>
<text text-anchor="start" x="-97" y="3.2" font-family="Times,serif" font-size="14.00">add_retail_items_to_cart</text>
<text text-anchor="start" x="-97" y="18.2" font-family="Times,serif" font-size="14.00">add_service_charge_to_cart</text>
<text text-anchor="start" x="-97" y="33.2" font-family="Times,serif" font-size="14.00">add_tickets_to_cart</text>
<text text-anchor="start" x="-97" y="48.2" font-family="Times,serif" font-size="14.00">finalize_order</text>
<text text-anchor="start" x="-97" y="63.2" font-family="Times,serif" font-size="14.00">purchasemethod_from_params</text>
<text text-anchor="start" x="-97" y="78.2" font-family="Times,serif" font-size="14.00">recipient_from_params</text>
<text text-anchor="start" x="-97" y="93.2" font-family="Times,serif" font-size="14.00">redirect_to_checkout</text>
<text text-anchor="start" x="-97" y="108.2" font-family="Times,serif" font-size="14.00">redirect_to_referer</text>
<text text-anchor="start" x="-97" y="123.2" font-family="Times,serif" font-size="14.00">remember_cart_in_session!</text>
<text text-anchor="start" x="-97" y="138.2" font-family="Times,serif" font-size="14.00">set_customer</text>
<text text-anchor="start" x="-97" y="153.2" font-family="Times,serif" font-size="14.00">setup_for_showdate</text>
<text text-anchor="start" x="-97" y="168.2" font-family="Times,serif" font-size="14.00">setup_ticket_menus_for_admin</text>
<text text-anchor="start" x="-97" y="183.2" font-family="Times,serif" font-size="14.00">setup_ticket_menus_for_patron</text>
<text text-anchor="start" x="-97" y="198.2" font-family="Times,serif" font-size="14.00">showdate_from_default</text>
<text text-anchor="start" x="-97" y="213.2" font-family="Times,serif" font-size="14.00">showdate_from_params</text>
<text text-anchor="start" x="-97" y="228.2" font-family="Times,serif" font-size="14.00">showdate_from_show_params</text>
<text text-anchor="start" x="-97" y="243.2" font-family="Times,serif" font-size="14.00">well_formed_customer_url</text>
</g>
<!-- InfoController -->
<g id="node7" class="node"><title>InfoController</title>
<path fill="none" stroke="black" d="M96.5,503C96.5,503 167.5,503 167.5,503 173.5,503 179.5,497 179.5,491 179.5,491 179.5,407 179.5,407 179.5,401 173.5,395 167.5,395 167.5,395 96.5,395 96.5,395 90.5,395 84.5,401 84.5,407 84.5,407 84.5,491 84.5,491 84.5,497 90.5,503 96.5,503"/>
<text text-anchor="middle" x="132" y="410.2" font-family="Times,serif" font-size="14.00">InfoController</text>
<polyline fill="none" stroke="black" points="84.5,418 179.5,418 "/>
<text text-anchor="start" x="92.5" y="433.2" font-family="Times,serif" font-size="14.00">availability</text>
<text text-anchor="start" x="92.5" y="448.2" font-family="Times,serif" font-size="14.00">ticket_rss</text>
<polyline fill="none" stroke="black" points="84.5,456 179.5,456 "/>
<polyline fill="none" stroke="black" points="84.5,480 179.5,480 "/>
<text text-anchor="start" x="92.5" y="495.2" font-family="Times,serif" font-size="14.00">_layout</text>
</g>
<!-- OptionsController -->
<g id="node8" class="node"><title>OptionsController</title>
<path fill="none" stroke="black" d="M-471.5,398C-471.5,398 -380.5,398 -380.5,398 -374.5,398 -368.5,392 -368.5,386 -368.5,386 -368.5,272 -368.5,272 -368.5,266 -374.5,260 -380.5,260 -380.5,260 -471.5,260 -471.5,260 -477.5,260 -483.5,266 -483.5,272 -483.5,272 -483.5,386 -483.5,386 -483.5,392 -477.5,398 -471.5,398"/>
<text text-anchor="middle" x="-426" y="275.2" font-family="Times,serif" font-size="14.00">OptionsController</text>
<polyline fill="none" stroke="black" points="-483.5,283 -368.5,283 "/>
<text text-anchor="start" x="-475.5" y="298.2" font-family="Times,serif" font-size="14.00">index</text>
<text text-anchor="start" x="-475.5" y="313.2" font-family="Times,serif" font-size="14.00">swipe_test</text>
<text text-anchor="start" x="-475.5" y="328.2" font-family="Times,serif" font-size="14.00">update</text>
<polyline fill="none" stroke="black" points="-483.5,336 -368.5,336 "/>
<polyline fill="none" stroke="black" points="-483.5,360 -368.5,360 "/>
<text text-anchor="start" x="-475.5" y="375.2" font-family="Times,serif" font-size="14.00">_layout</text>
<text text-anchor="start" x="-475.5" y="390.2" font-family="Times,serif" font-size="14.00">option_params</text>
</g>
<!-- ValidVouchersController -->
<g id="node9" class="node"><title>ValidVouchersController</title>
<path fill="none" stroke="black" d="M159,-357C159,-357 289,-357 289,-357 295,-357 301,-363 301,-369 301,-369 301,-513 301,-513 301,-519 295,-525 289,-525 289,-525 159,-525 159,-525 153,-525 147,-519 147,-513 147,-513 147,-369 147,-369 147,-363 153,-357 159,-357"/>
<text text-anchor="middle" x="224" y="-509.8" font-family="Times,serif" font-size="14.00">ValidVouchersController</text>
<polyline fill="none" stroke="black" points="147,-502 301,-502 "/>
<text text-anchor="start" x="155" y="-486.8" font-family="Times,serif" font-size="14.00">create</text>
<text text-anchor="start" x="155" y="-471.8" font-family="Times,serif" font-size="14.00">destroy</text>
<text text-anchor="start" x="155" y="-456.8" font-family="Times,serif" font-size="14.00">edit</text>
<text text-anchor="start" x="155" y="-441.8" font-family="Times,serif" font-size="14.00">new</text>
<text text-anchor="start" x="155" y="-426.8" font-family="Times,serif" font-size="14.00">show</text>
<text text-anchor="start" x="155" y="-411.8" font-family="Times,serif" font-size="14.00">update</text>
<polyline fill="none" stroke="black" points="147,-404 301,-404 "/>
<polyline fill="none" stroke="black" points="147,-380 301,-380 "/>
<text text-anchor="start" x="155" y="-364.8" font-family="Times,serif" font-size="14.00">_layout</text>
</g>
<!-- BulkDownloadsController -->
<g id="node10" class="node"><title>BulkDownloadsController</title>
<path fill="none" stroke="black" d="M348,-168.5C348,-168.5 484,-168.5 484,-168.5 490,-168.5 496,-174.5 496,-180.5 496,-180.5 496,-339.5 496,-339.5 496,-345.5 490,-351.5 484,-351.5 484,-351.5 348,-351.5 348,-351.5 342,-351.5 336,-345.5 336,-339.5 336,-339.5 336,-180.5 336,-180.5 336,-174.5 342,-168.5 348,-168.5"/>
<text text-anchor="middle" x="416" y="-336.3" font-family="Times,serif" font-size="14.00">BulkDownloadsController</text>
<polyline fill="none" stroke="black" points="336,-328.5 496,-328.5 "/>
<text text-anchor="start" x="344" y="-313.3" font-family="Times,serif" font-size="14.00">create</text>
<text text-anchor="start" x="344" y="-298.3" font-family="Times,serif" font-size="14.00">destroy</text>
<text text-anchor="start" x="344" y="-283.3" font-family="Times,serif" font-size="14.00">edit</text>
<text text-anchor="start" x="344" y="-268.3" font-family="Times,serif" font-size="14.00">index</text>
<text text-anchor="start" x="344" y="-253.3" font-family="Times,serif" font-size="14.00">show</text>
<text text-anchor="start" x="344" y="-238.3" font-family="Times,serif" font-size="14.00">update</text>
<polyline fill="none" stroke="black" points="336,-230.5 496,-230.5 "/>
<polyline fill="none" stroke="black" points="336,-206.5 496,-206.5 "/>
<text text-anchor="start" x="344" y="-191.3" font-family="Times,serif" font-size="14.00">_layout</text>
<text text-anchor="start" x="344" y="-176.3" font-family="Times,serif" font-size="14.00">find_or_create_show</text>
</g>
<!-- CustomersController -->
<g id="node11" class="node"><title>CustomersController</title>
<path fill="none" stroke="black" d="M-135.5,-253C-135.5,-253 79.5,-253 79.5,-253 85.5,-253 91.5,-259 91.5,-265 91.5,-265 91.5,-619 91.5,-619 91.5,-625 85.5,-631 79.5,-631 79.5,-631 -135.5,-631 -135.5,-631 -141.5,-631 -147.5,-625 -147.5,-619 -147.5,-619 -147.5,-265 -147.5,-265 -147.5,-259 -141.5,-253 -135.5,-253"/>
<text text-anchor="middle" x="-28" y="-615.8" font-family="Times,serif" font-size="14.00">CustomersController</text>
<polyline fill="none" stroke="black" points="-147.5,-608 91.5,-608 "/>
<text text-anchor="start" x="-139.5" y="-592.8" font-family="Times,serif" font-size="14.00">auto_complete_for_customer_full_name</text>
<text text-anchor="start" x="-139.5" y="-577.8" font-family="Times,serif" font-size="14.00">change_password_for</text>
<text text-anchor="start" x="-139.5" y="-562.8" font-family="Times,serif" font-size="14.00">change_secret_question</text>
<text text-anchor="start" x="-139.5" y="-547.8" font-family="Times,serif" font-size="14.00">create</text>
<text text-anchor="start" x="-139.5" y="-532.8" font-family="Times,serif" font-size="14.00">edit</text>
<text text-anchor="start" x="-139.5" y="-517.8" font-family="Times,serif" font-size="14.00">finalize_merge</text>
<text text-anchor="start" x="-139.5" y="-502.8" font-family="Times,serif" font-size="14.00">forgot_password</text>
<text text-anchor="start" x="-139.5" y="-487.8" font-family="Times,serif" font-size="14.00">index</text>
<text text-anchor="start" x="-139.5" y="-472.8" font-family="Times,serif" font-size="14.00">list_duplicate</text>
<text text-anchor="start" x="-139.5" y="-457.8" font-family="Times,serif" font-size="14.00">merge</text>
<text text-anchor="start" x="-139.5" y="-442.8" font-family="Times,serif" font-size="14.00">new</text>
<text text-anchor="start" x="-139.5" y="-427.8" font-family="Times,serif" font-size="14.00">show</text>
<text text-anchor="start" x="-139.5" y="-412.8" font-family="Times,serif" font-size="14.00">update</text>
<text text-anchor="start" x="-139.5" y="-397.8" font-family="Times,serif" font-size="14.00">user_create</text>
<polyline fill="none" stroke="black" points="-147.5,-390 91.5,-390 "/>
<polyline fill="none" stroke="black" points="-147.5,-366 91.5,-366 "/>
<text text-anchor="start" x="-139.5" y="-350.8" font-family="Times,serif" font-size="14.00">_layout</text>
<text text-anchor="start" x="-139.5" y="-335.8" font-family="Times,serif" font-size="14.00">delete_admin_only_attributes</text>
<text text-anchor="start" x="-139.5" y="-320.8" font-family="Times,serif" font-size="14.00">do_automatic_merge</text>
<text text-anchor="start" x="-139.5" y="-305.8" font-family="Times,serif" font-size="14.00">do_deletions</text>
<text text-anchor="start" x="-139.5" y="-290.8" font-family="Times,serif" font-size="14.00">is_myself_or_staff</text>
<text text-anchor="start" x="-139.5" y="-275.8" font-family="Times,serif" font-size="14.00">redirect_to_last_list</text>
<text text-anchor="start" x="-139.5" y="-260.8" font-family="Times,serif" font-size="14.00">send_new_password</text>
</g>
<!-- ShowdatesController -->
<g id="node12" class="node"><title>ShowdatesController</title>
<path fill="none" stroke="black" d="M-324.5,-336.5C-324.5,-336.5 -189.5,-336.5 -189.5,-336.5 -183.5,-336.5 -177.5,-342.5 -177.5,-348.5 -177.5,-348.5 -177.5,-507.5 -177.5,-507.5 -177.5,-513.5 -183.5,-519.5 -189.5,-519.5 -189.5,-519.5 -324.5,-519.5 -324.5,-519.5 -330.5,-519.5 -336.5,-513.5 -336.5,-507.5 -336.5,-507.5 -336.5,-348.5 -336.5,-348.5 -336.5,-342.5 -330.5,-336.5 -324.5,-336.5"/>
<text text-anchor="middle" x="-257" y="-504.3" font-family="Times,serif" font-size="14.00">ShowdatesController</text>
<polyline fill="none" stroke="black" points="-336.5,-496.5 -177.5,-496.5 "/>
<text text-anchor="start" x="-328.5" y="-481.3" font-family="Times,serif" font-size="14.00">create</text>
<text text-anchor="start" x="-328.5" y="-466.3" font-family="Times,serif" font-size="14.00">destroy</text>
<text text-anchor="start" x="-328.5" y="-451.3" font-family="Times,serif" font-size="14.00">edit</text>
<text text-anchor="start" x="-328.5" y="-436.3" font-family="Times,serif" font-size="14.00">new</text>
<text text-anchor="start" x="-328.5" y="-421.3" font-family="Times,serif" font-size="14.00">update</text>
<polyline fill="none" stroke="black" points="-336.5,-413.5 -177.5,-413.5 "/>
<polyline fill="none" stroke="black" points="-336.5,-389.5 -177.5,-389.5 "/>
<text text-anchor="start" x="-328.5" y="-374.3" font-family="Times,serif" font-size="14.00">_layout</text>
<text text-anchor="start" x="-328.5" y="-359.3" font-family="Times,serif" font-size="14.00">load_show</text>
<text text-anchor="start" x="-328.5" y="-344.3" font-family="Times,serif" font-size="14.00">showdates_from_date_list</text>
</g>
<!-- ReportsController -->
<g id="node13" class="node"><title>ReportsController</title>
<path fill="none" stroke="black" d="M-281.5,62.5C-281.5,62.5 -148.5,62.5 -148.5,62.5 -142.5,62.5 -136.5,56.5 -136.5,50.5 -136.5,50.5 -136.5,-198.5 -136.5,-198.5 -136.5,-204.5 -142.5,-210.5 -148.5,-210.5 -148.5,-210.5 -281.5,-210.5 -281.5,-210.5 -287.5,-210.5 -293.5,-204.5 -293.5,-198.5 -293.5,-198.5 -293.5,50.5 -293.5,50.5 -293.5,56.5 -287.5,62.5 -281.5,62.5"/>
<text text-anchor="middle" x="-215" y="-195.3" font-family="Times,serif" font-size="14.00">ReportsController</text>
<polyline fill="none" stroke="black" points="-293.5,-187.5 -136.5,-187.5 "/>
<text text-anchor="start" x="-285.5" y="-172.3" font-family="Times,serif" font-size="14.00">advance_sales</text>
<text text-anchor="start" x="-285.5" y="-157.3" font-family="Times,serif" font-size="14.00">attendance</text>
<text text-anchor="start" x="-285.5" y="-142.3" font-family="Times,serif" font-size="14.00">do_report</text>
<text text-anchor="start" x="-285.5" y="-127.3" font-family="Times,serif" font-size="14.00">index</text>
<text text-anchor="start" x="-285.5" y="-112.3" font-family="Times,serif" font-size="14.00">mark_fulfilled</text>
<text text-anchor="start" x="-285.5" y="-97.3" font-family="Times,serif" font-size="14.00">run_special</text>
<text text-anchor="start" x="-285.5" y="-82.3" font-family="Times,serif" font-size="14.00">showdate_sales</text>
<text text-anchor="start" x="-285.5" y="-67.3" font-family="Times,serif" font-size="14.00">subscriber_details</text>
<text text-anchor="start" x="-285.5" y="-52.3" font-family="Times,serif" font-size="14.00">unfulfilled_orders</text>
<polyline fill="none" stroke="black" points="-293.5,-44.5 -136.5,-44.5 "/>
<polyline fill="none" stroke="black" points="-293.5,-20.5 -136.5,-20.5 "/>
<text text-anchor="start" x="-285.5" y="-5.3" font-family="Times,serif" font-size="14.00">_layout</text>
<text text-anchor="start" x="-285.5" y="9.7" font-family="Times,serif" font-size="14.00">accounting_report</text>
<text text-anchor="start" x="-285.5" y="24.7" font-family="Times,serif" font-size="14.00">retail</text>
<text text-anchor="start" x="-285.5" y="39.7" font-family="Times,serif" font-size="14.00">transaction_details_report</text>
<text text-anchor="start" x="-285.5" y="54.7" font-family="Times,serif" font-size="14.00">validate_report_type</text>
</g>
<!-- TxnsController -->
<g id="node14" class="node"><title>TxnsController</title>
<path fill="none" stroke="black" d="M-512.5,524.5C-512.5,524.5 -437.5,524.5 -437.5,524.5 -431.5,524.5 -425.5,518.5 -425.5,512.5 -425.5,512.5 -425.5,443.5 -425.5,443.5 -425.5,437.5 -431.5,431.5 -437.5,431.5 -437.5,431.5 -512.5,431.5 -512.5,431.5 -518.5,431.5 -524.5,437.5 -524.5,443.5 -524.5,443.5 -524.5,512.5 -524.5,512.5 -524.5,518.5 -518.5,524.5 -512.5,524.5"/>
<text text-anchor="middle" x="-475" y="446.7" font-family="Times,serif" font-size="14.00">TxnsController</text>
<polyline fill="none" stroke="black" points="-524.5,454.5 -425.5,454.5 "/>
<text text-anchor="start" x="-516.5" y="469.7" font-family="Times,serif" font-size="14.00">index</text>
<polyline fill="none" stroke="black" points="-524.5,477.5 -425.5,477.5 "/>
<polyline fill="none" stroke="black" points="-524.5,501.5 -425.5,501.5 "/>
<text text-anchor="start" x="-516.5" y="516.7" font-family="Times,serif" font-size="14.00">_layout</text>
</g>
<!-- AccountCodesController -->
<g id="node15" class="node"><title>AccountCodesController</title>
<path fill="none" stroke="black" d="M411,-399.5C411,-399.5 539,-399.5 539,-399.5 545,-399.5 551,-405.5 551,-411.5 551,-411.5 551,-570.5 551,-570.5 551,-576.5 545,-582.5 539,-582.5 539,-582.5 411,-582.5 411,-582.5 405,-582.5 399,-576.5 399,-570.5 399,-570.5 399,-411.5 399,-411.5 399,-405.5 405,-399.5 411,-399.5"/>
<text text-anchor="middle" x="475" y="-567.3" font-family="Times,serif" font-size="14.00">AccountCodesController</text>
<polyline fill="none" stroke="black" points="399,-559.5 551,-559.5 "/>
<text text-anchor="start" x="407" y="-544.3" font-family="Times,serif" font-size="14.00">create</text>
<text text-anchor="start" x="407" y="-529.3" font-family="Times,serif" font-size="14.00">destroy</text>
<text text-anchor="start" x="407" y="-514.3" font-family="Times,serif" font-size="14.00">edit</text>
<text text-anchor="start" x="407" y="-499.3" font-family="Times,serif" font-size="14.00">index</text>
<text text-anchor="start" x="407" y="-484.3" font-family="Times,serif" font-size="14.00">new</text>
<text text-anchor="start" x="407" y="-469.3" font-family="Times,serif" font-size="14.00">update</text>
<polyline fill="none" stroke="black" points="399,-461.5 551,-461.5 "/>
<polyline fill="none" stroke="black" points="399,-437.5 551,-437.5 "/>
<text text-anchor="start" x="407" y="-422.3" font-family="Times,serif" font-size="14.00">_layout</text>
<text text-anchor="start" x="407" y="-407.3" font-family="Times,serif" font-size="14.00">account_code_params</text>
</g>
<!-- DonationsController -->
<g id="node16" class="node"><title>DonationsController</title>
<path fill="none" stroke="black" d="M-450,-0C-450,-0 -346,-0 -346,-0 -340,-0 -334,-6 -334,-12 -334,-12 -334,-156 -334,-156 -334,-162 -340,-168 -346,-168 -346,-168 -450,-168 -450,-168 -456,-168 -462,-162 -462,-156 -462,-156 -462,-12 -462,-12 -462,-6 -456,-0 -450,-0"/>
<text text-anchor="middle" x="-398" y="-152.8" font-family="Times,serif" font-size="14.00">DonationsController</text>
<polyline fill="none" stroke="black" points="-462,-145 -334,-145 "/>
<text text-anchor="start" x="-454" y="-129.8" font-family="Times,serif" font-size="14.00">create</text>
<text text-anchor="start" x="-454" y="-114.8" font-family="Times,serif" font-size="14.00">index</text>
<text text-anchor="start" x="-454" y="-99.8" font-family="Times,serif" font-size="14.00">new</text>
<text text-anchor="start" x="-454" y="-84.8" font-family="Times,serif" font-size="14.00">update</text>
<polyline fill="none" stroke="black" points="-462,-77 -334,-77 "/>
<polyline fill="none" stroke="black" points="-462,-53 -334,-53 "/>
<text text-anchor="start" x="-454" y="-37.8" font-family="Times,serif" font-size="14.00">_layout</text>
<text text-anchor="start" x="-454" y="-22.8" font-family="Times,serif" font-size="14.00">export</text>
<text text-anchor="start" x="-454" y="-7.8" font-family="Times,serif" font-size="14.00">load_customer</text>
</g>
<!-- OrdersController -->
<g id="node17" class="node"><title>OrdersController</title>
<path fill="none" stroke="black" d="M-323.5,503.5C-323.5,503.5 -238.5,503.5 -238.5,503.5 -232.5,503.5 -226.5,497.5 -226.5,491.5 -226.5,491.5 -226.5,392.5 -226.5,392.5 -226.5,386.5 -232.5,380.5 -238.5,380.5 -238.5,380.5 -323.5,380.5 -323.5,380.5 -329.5,380.5 -335.5,386.5 -335.5,392.5 -335.5,392.5 -335.5,491.5 -335.5,491.5 -335.5,497.5 -329.5,503.5 -323.5,503.5"/>
<text text-anchor="middle" x="-281" y="395.7" font-family="Times,serif" font-size="14.00">OrdersController</text>
<polyline fill="none" stroke="black" points="-335.5,403.5 -226.5,403.5 "/>
<text text-anchor="start" x="-327.5" y="418.7" font-family="Times,serif" font-size="14.00">index</text>
<text text-anchor="start" x="-327.5" y="433.7" font-family="Times,serif" font-size="14.00">show</text>
<text text-anchor="start" x="-327.5" y="448.7" font-family="Times,serif" font-size="14.00">update</text>
<polyline fill="none" stroke="black" points="-335.5,456.5 -226.5,456.5 "/>
<polyline fill="none" stroke="black" points="-335.5,480.5 -226.5,480.5 "/>
<text text-anchor="start" x="-327.5" y="495.7" font-family="Times,serif" font-size="14.00">_layout</text>
</g>
<!-- WalkupSalesController -->
<g id="node18" class="node"><title>WalkupSalesController</title>
<path fill="none" stroke="black" d="M-513,-526C-513,-526 -393,-526 -393,-526 -387,-526 -381,-532 -381,-538 -381,-538 -381,-652 -381,-652 -381,-658 -387,-664 -393,-664 -393,-664 -513,-664 -513,-664 -519,-664 -525,-658 -525,-652 -525,-652 -525,-538 -525,-538 -525,-532 -519,-526 -513,-526"/>
<text text-anchor="middle" x="-453" y="-648.8" font-family="Times,serif" font-size="14.00">WalkupSalesController</text>
<polyline fill="none" stroke="black" points="-525,-641 -381,-641 "/>
<text text-anchor="start" x="-517" y="-625.8" font-family="Times,serif" font-size="14.00">create</text>
<text text-anchor="start" x="-517" y="-610.8" font-family="Times,serif" font-size="14.00">report</text>
<text text-anchor="start" x="-517" y="-595.8" font-family="Times,serif" font-size="14.00">show</text>
<text text-anchor="start" x="-517" y="-580.8" font-family="Times,serif" font-size="14.00">update</text>
<polyline fill="none" stroke="black" points="-525,-573 -381,-573 "/>
<polyline fill="none" stroke="black" points="-525,-549 -381,-549 "/>
<text text-anchor="start" x="-517" y="-533.8" font-family="Times,serif" font-size="14.00">_layout</text>
</g>
<!-- VouchersController -->
<g id="node19" class="node"><title>VouchersController</title>
<path fill="none" stroke="black" d="M-324,335C-324,335 -160,335 -160,335 -154,335 -148,329 -148,323 -148,323 -148,119 -148,119 -148,113 -154,107 -160,107 -160,107 -324,107 -324,107 -330,107 -336,113 -336,119 -336,119 -336,323 -336,323 -336,329 -330,335 -324,335"/>
<text text-anchor="middle" x="-242" y="122.2" font-family="Times,serif" font-size="14.00">VouchersController</text>
<polyline fill="none" stroke="black" points="-336,130 -148,130 "/>
<text text-anchor="start" x="-328" y="145.2" font-family="Times,serif" font-size="14.00">cancel_multiple</text>
<text text-anchor="start" x="-328" y="160.2" font-family="Times,serif" font-size="14.00">confirm_multiple</text>
<text text-anchor="start" x="-328" y="175.2" font-family="Times,serif" font-size="14.00">create</text>
<text text-anchor="start" x="-328" y="190.2" font-family="Times,serif" font-size="14.00">index</text>
<text text-anchor="start" x="-328" y="205.2" font-family="Times,serif" font-size="14.00">new</text>
<text text-anchor="start" x="-328" y="220.2" font-family="Times,serif" font-size="14.00">reserve</text>
<text text-anchor="start" x="-328" y="235.2" font-family="Times,serif" font-size="14.00">transfer_multiple</text>
<text text-anchor="start" x="-328" y="250.2" font-family="Times,serif" font-size="14.00">update_comment</text>
<text text-anchor="start" x="-328" y="265.2" font-family="Times,serif" font-size="14.00">update_shows</text>
<polyline fill="none" stroke="black" points="-336,273 -148,273 "/>
<polyline fill="none" stroke="black" points="-336,297 -148,297 "/>
<text text-anchor="start" x="-328" y="312.2" font-family="Times,serif" font-size="14.00">_layout</text>
<text text-anchor="start" x="-328" y="327.2" font-family="Times,serif" font-size="14.00">owns_voucher_or_is_boxoffice</text>
</g>
<!-- VouchertypesController -->
<g id="node20" class="node"><title>VouchertypesController</title>
<path fill="none" stroke="black" d="M138.5,356C138.5,356 261.5,356 261.5,356 267.5,356 273.5,350 273.5,344 273.5,344 273.5,170 273.5,170 273.5,164 267.5,158 261.5,158 261.5,158 138.5,158 138.5,158 132.5,158 126.5,164 126.5,170 126.5,170 126.5,344 126.5,344 126.5,350 132.5,356 138.5,356"/>
<text text-anchor="middle" x="200" y="173.2" font-family="Times,serif" font-size="14.00">VouchertypesController</text>
<polyline fill="none" stroke="black" points="126.5,181 273.5,181 "/>
<text text-anchor="start" x="134.5" y="196.2" font-family="Times,serif" font-size="14.00">clone</text>
<text text-anchor="start" x="134.5" y="211.2" font-family="Times,serif" font-size="14.00">create</text>
<text text-anchor="start" x="134.5" y="226.2" font-family="Times,serif" font-size="14.00">destroy</text>
<text text-anchor="start" x="134.5" y="241.2" font-family="Times,serif" font-size="14.00">edit</text>
<text text-anchor="start" x="134.5" y="256.2" font-family="Times,serif" font-size="14.00">index</text>
<text text-anchor="start" x="134.5" y="271.2" font-family="Times,serif" font-size="14.00">new</text>
<text text-anchor="start" x="134.5" y="286.2" font-family="Times,serif" font-size="14.00">update</text>
<polyline fill="none" stroke="black" points="126.5,294 273.5,294 "/>
<polyline fill="none" stroke="black" points="126.5,318 273.5,318 "/>
<text text-anchor="start" x="134.5" y="333.2" font-family="Times,serif" font-size="14.00">_layout</text>
<text text-anchor="start" x="134.5" y="348.2" font-family="Times,serif" font-size="14.00">load_vouchertype</text>
</g>
<!-- CheckinsController -->
<g id="node21" class="node"><title>CheckinsController</title>
<path fill="none" stroke="black" d="M-93,440.5C-93,440.5 29,440.5 29,440.5 35,440.5 41,434.5 41,428.5 41,428.5 41,299.5 41,299.5 41,293.5 35,287.5 29,287.5 29,287.5 -93,287.5 -93,287.5 -99,287.5 -105,293.5 -105,299.5 -105,299.5 -105,428.5 -105,428.5 -105,434.5 -99,440.5 -93,440.5"/>
<text text-anchor="middle" x="-32" y="302.7" font-family="Times,serif" font-size="14.00">CheckinsController</text>
<polyline fill="none" stroke="black" points="-105,310.5 41,310.5 "/>
<text text-anchor="start" x="-97" y="325.7" font-family="Times,serif" font-size="14.00">door_list</text>
<text text-anchor="start" x="-97" y="340.7" font-family="Times,serif" font-size="14.00">show</text>
<text text-anchor="start" x="-97" y="355.7" font-family="Times,serif" font-size="14.00">update</text>
<polyline fill="none" stroke="black" points="-105,363.5 41,363.5 "/>
<polyline fill="none" stroke="black" points="-105,387.5 41,387.5 "/>
<text text-anchor="start" x="-97" y="402.7" font-family="Times,serif" font-size="14.00">_layout</text>
<text text-anchor="start" x="-97" y="417.7" font-family="Times,serif" font-size="14.00">get_showdate</text>
<text text-anchor="start" x="-97" y="432.7" font-family="Times,serif" font-size="14.00">vouchers_for_showdate</text>
</g>
<!-- ShowsController -->
<g id="node22" class="node"><title>ShowsController</title>
<path fill="none" stroke="black" d="M-471,-315C-471,-315 -387,-315 -387,-315 -381,-315 -375,-321 -375,-327 -375,-327 -375,-471 -375,-471 -375,-477 -381,-483 -387,-483 -387,-483 -471,-483 -471,-483 -477,-483 -483,-477 -483,-471 -483,-471 -483,-327 -483,-327 -483,-321 -477,-315 -471,-315"/>
<text text-anchor="middle" x="-429" y="-467.8" font-family="Times,serif" font-size="14.00">ShowsController</text>
<polyline fill="none" stroke="black" points="-483,-460 -375,-460 "/>
<text text-anchor="start" x="-475" y="-444.8" font-family="Times,serif" font-size="14.00">create</text>
<text text-anchor="start" x="-475" y="-429.8" font-family="Times,serif" font-size="14.00">destroy</text>
<text text-anchor="start" x="-475" y="-414.8" font-family="Times,serif" font-size="14.00">edit</text>
<text text-anchor="start" x="-475" y="-399.8" font-family="Times,serif" font-size="14.00">index</text>
<text text-anchor="start" x="-475" y="-384.8" font-family="Times,serif" font-size="14.00">new</text>
<text text-anchor="start" x="-475" y="-369.8" font-family="Times,serif" font-size="14.00">update</text>
<polyline fill="none" stroke="black" points="-483,-362 -375,-362 "/>
<polyline fill="none" stroke="black" points="-483,-338 -375,-338 "/>
<text text-anchor="start" x="-475" y="-322.8" font-family="Times,serif" font-size="14.00">_layout</text>
</g>
</g>
</svg>
