<?xml version="1.0" encoding="UTF-8" standalone="no"?>
<!DOCTYPE svg PUBLIC "-//W3C//DTD SVG 1.1//EN"
 "http://www.w3.org/Graphics/SVG/1.1/DTD/svg11.dtd">
<!-- Generated by graphviz version 2.30.1 (20180828.1746)
 -->
<!-- Title: models_diagram Pages: 1 -->
<svg width="2585pt" height="424pt"
 viewBox="0.00 0.00 2585.00 424.00" xmlns="http://www.w3.org/2000/svg" xmlns:xlink="http://www.w3.org/1999/xlink">
<g id="graph0" class="graph" transform="scale(1 1) rotate(0) translate(4 420)">
<title>models_diagram</title>
<polygon fill="none" stroke="none" points="-4,5 -4,-420 2582,-420 2582,5 -4,5"/>
<!-- _diagram_info -->
<g id="node1" class="node"><title>_diagram_info</title>
<text text-anchor="start" x="8" y="-401.6" font-family="Times,serif" font-size="13.00">Models diagram</text>
<text text-anchor="start" x="8" y="-387.6" font-family="Times,serif" font-size="13.00">Date: Feb 13 2021 &#45; 19:55</text>
<text text-anchor="start" x="8" y="-373.6" font-family="Times,serif" font-size="13.00">Migration version: 20210110203219</text>
<text text-anchor="start" x="8" y="-359.6" font-family="Times,serif" font-size="13.00">Generated by RailRoady 1.5.3</text>
<text text-anchor="start" x="8" y="-345.6" font-family="Times,serif" font-size="13.00">http://railroady.prestonlee.com</text>
</g>
<!-- RefundedItem -->
<g id="node2" class="node"><title>RefundedItem</title>
<ellipse fill="none" stroke="black" cx="566" cy="-18" rx="61.6163" ry="18"/>
<text text-anchor="middle" x="566" y="-14.3" font-family="Times,serif" font-size="14.00">RefundedItem</text>
</g>
<!-- RefundedItem&#45;&gt;RefundedItem -->
<g id="edge1" class="edge"><title>RefundedItem&#45;&gt;RefundedItem</title>
<path fill="none" stroke="#fa4682" d="M631.157,-23.9067C639.496,-22.8784 645,-20.9095 645,-18 645,-15.0905 639.496,-13.1216 631.157,-12.0933"/>
<ellipse fill="none" stroke="#fa4682" cx="627.153" cy="-24.2382" rx="4" ry="4"/>
<ellipse fill="#fa4682" stroke="#fa4682" cx="627.153" cy="-11.7618" rx="4" ry="4"/>
</g>
<!-- Voucher -->
<g id="node3" class="node"><title>Voucher</title>
<ellipse fill="none" stroke="black" cx="749" cy="-92" rx="40.4202" ry="18"/>
<text text-anchor="middle" x="749" y="-88.3" font-family="Times,serif" font-size="14.00">Voucher</text>
</g>
<!-- Voucher&#45;&gt;RefundedItem -->
<g id="edge2" class="edge"><title>Voucher&#45;&gt;RefundedItem</title>
<path fill="none" stroke="#b5b928" d="M712.115,-76.4879C682.315,-64.7634 640.326,-48.2432 609.003,-35.919"/>
<ellipse fill="none" stroke="#b5b928" cx="715.876" cy="-77.9674" rx="4.00001" ry="4.00001"/>
<ellipse fill="#b5b928" stroke="#b5b928" cx="605.005" cy="-34.3462" rx="4.00001" ry="4.00001"/>
</g>
<!-- Voucher&#45;&gt;Voucher -->
<g id="edge3" class="edge"><title>Voucher&#45;&gt;Voucher</title>
<path fill="none" stroke="#ef2a26" d="M794.651,-98.2235C801.979,-97.3176 807,-95.2432 807,-92 807,-89.0947 802.971,-87.1272 796.863,-86.0977"/>
<ellipse fill="none" stroke="#ef2a26" cx="790.646" cy="-98.482" rx="4" ry="4"/>
<polygon fill="#ef2a26" stroke="#ef2a26" points="796.621,-86.0779 787.022,-80.7754 791.638,-85.6691 786.655,-85.2603 786.655,-85.2603 786.655,-85.2603 791.638,-85.6691 786.287,-89.7452 796.621,-86.0779 796.621,-86.0779"/>
<text text-anchor="middle" x="857" y="-88.3" font-family="Times,serif" font-size="14.00">bundled_vouchers</text>
</g>
<!-- Donation -->
<g id="node4" class="node"><title>Donation</title>
<ellipse fill="none" stroke="black" cx="566" cy="-180" rx="43.319" ry="18"/>
<text text-anchor="middle" x="566" y="-176.3" font-family="Times,serif" font-size="14.00">Donation</text>
</g>
<!-- Donation&#45;&gt;RefundedItem -->
<g id="edge4" class="edge"><title>Donation&#45;&gt;RefundedItem</title>
<path fill="none" stroke="#a43a2c" d="M566,-153.704C566,-123.926 566,-74.7434 566,-44.7642"/>
<ellipse fill="none" stroke="#a43a2c" cx="566" cy="-157.877" rx="4" ry="4"/>
<ellipse fill="#a43a2c" stroke="#a43a2c" cx="566" cy="-40.4847" rx="4" ry="4"/>
</g>
<!-- CanceledItem -->
<g id="node5" class="node"><title>CanceledItem</title>
<ellipse fill="none" stroke="black" cx="1250" cy="-92" rx="59.1941" ry="18"/>
<text text-anchor="middle" x="1250" y="-88.3" font-family="Times,serif" font-size="14.00">CanceledItem</text>
</g>
<!-- CanceledItem&#45;&gt;RefundedItem -->
<g id="edge5" class="edge"><title>CanceledItem&#45;&gt;RefundedItem</title>
<path fill="none" stroke="#038955" d="M1198.98,-77.5099C1192.95,-76.1882 1186.86,-74.9774 1181,-74 984.297,-41.1695 748.705,-27.0097 634.623,-21.7222"/>
<ellipse fill="none" stroke="#038955" cx="1203.25" cy="-78.4811" rx="4.00001" ry="4.00001"/>
<ellipse fill="#038955" stroke="#038955" cx="630.617" cy="-21.5393" rx="4" ry="4"/>
</g>
<!-- RetailItem -->
<g id="node6" class="node"><title>RetailItem</title>
<ellipse fill="none" stroke="black" cx="384" cy="-180" rx="48.1437" ry="18"/>
<text text-anchor="middle" x="384" y="-176.3" font-family="Times,serif" font-size="14.00">RetailItem</text>
</g>
<!-- RetailItem&#45;&gt;RefundedItem -->
<g id="edge6" class="edge"><title>RetailItem&#45;&gt;RefundedItem</title>
<path fill="none" stroke="#6c3c2c" d="M408.163,-157.758C442.805,-127.303 506.254,-71.5243 541.229,-40.7766"/>
<ellipse fill="none" stroke="#6c3c2c" cx="405.12" cy="-160.433" rx="4.00002" ry="4.00002"/>
<ellipse fill="#6c3c2c" stroke="#6c3c2c" cx="544.411" cy="-37.9793" rx="4.00002" ry="4.00002"/>
</g>
<!-- TicketSalesImport -->
<g id="node7" class="node"><title>TicketSalesImport</title>
<ellipse fill="none" stroke="black" cx="308" cy="-377" rx="76.0649" ry="18"/>
<text text-anchor="middle" x="308" y="-373.3" font-family="Times,serif" font-size="14.00">TicketSalesImport</text>
</g>
<!-- Order -->
<g id="node23" class="node"><title>Order</title>
<ellipse fill="none" stroke="black" cx="392" cy="-268" rx="31.2965" ry="18"/>
<text text-anchor="middle" x="392" y="-264.3" font-family="Times,serif" font-size="14.00">Order</text>
</g>
<!-- TicketSalesImport&#45;&gt;Order -->
<g id="edge7" class="edge"><title>TicketSalesImport&#45;&gt;Order</title>
<path fill="none" stroke="#ead40e" d="M322.951,-352.432C332.436,-338.019 345.279,-319.446 358,-304 361.568,-299.668 365.566,-295.234 369.533,-291.041"/>
<ellipse fill="none" stroke="#ead40e" cx="320.764" cy="-355.79" rx="4.00002" ry="4.00002"/>
<polygon fill="#ead40e" stroke="#ead40e" points="369.572,-291.001 379.768,-286.964 373.056,-287.414 376.54,-283.828 376.54,-283.828 376.54,-283.828 373.056,-287.414 373.312,-280.692 369.572,-291.001 369.572,-291.001"/>
</g>
<!-- EmailList -->
<g id="node8" class="node"><title>EmailList</title>
<polygon fill="none" stroke="black" points="1044.25,-395 973.75,-395 973.75,-359 1044.25,-359 1044.25,-395"/>
<text text-anchor="middle" x="1009" y="-373.3" font-family="Times,serif" font-size="14.00">EmailList</text>
</g>
<!-- AllSubscribers -->
<g id="node9" class="node"><title>AllSubscribers</title>
<polygon fill="none" stroke="black" points="1159.25,-395 1062.75,-395 1062.75,-359 1159.25,-359 1159.25,-395"/>
<text text-anchor="middle" x="1111" y="-373.3" font-family="Times,serif" font-size="14.00">AllSubscribers</text>
</g>
<!-- LapsedSubscribers -->
<g id="node10" class="node"><title>LapsedSubscribers</title>
<polygon fill="none" stroke="black" points="1296.25,-395 1177.75,-395 1177.75,-359 1296.25,-359 1296.25,-395"/>
<text text-anchor="middle" x="1237" y="-373.3" font-family="Times,serif" font-size="14.00">LapsedSubscribers</text>
</g>
<!-- SearchCustomersByLabel -->
<g id="node11" class="node"><title>SearchCustomersByLabel</title>
<polygon fill="none" stroke="black" points="1473,-395 1315,-395 1315,-359 1473,-359 1473,-395"/>
<text text-anchor="middle" x="1394" y="-373.3" font-family="Times,serif" font-size="14.00">SearchCustomersByLabel</text>
</g>
<!-- AttendanceAtSpecificPerformances -->
<g id="node12" class="node"><title>AttendanceAtSpecificPerformances</title>
<polygon fill="none" stroke="black" points="1702.25,-395 1491.75,-395 1491.75,-359 1702.25,-359 1702.25,-395"/>
<text text-anchor="middle" x="1597" y="-373.3" font-family="Times,serif" font-size="14.00">AttendanceAtSpecificPerformances</text>
</g>
<!-- DonorAppeal -->
<g id="node13" class="node"><title>DonorAppeal</title>
<polygon fill="none" stroke="black" points="1811,-395 1721,-395 1721,-359 1811,-359 1811,-395"/>
<text text-anchor="middle" x="1766" y="-373.3" font-family="Times,serif" font-size="14.00">DonorAppeal</text>
</g>
<!-- NewCustomers -->
<g id="node14" class="node"><title>NewCustomers</title>
<polygon fill="none" stroke="black" points="1930.25,-395 1829.75,-395 1829.75,-359 1930.25,-359 1930.25,-395"/>
<text text-anchor="middle" x="1880" y="-373.3" font-family="Times,serif" font-size="14.00">NewCustomers</text>
</g>
<!-- SubscriberOpenVouchers -->
<g id="node15" class="node"><title>SubscriberOpenVouchers</title>
<polygon fill="none" stroke="black" points="2103.25,-395 1948.75,-395 1948.75,-359 2103.25,-359 2103.25,-395"/>
<text text-anchor="middle" x="2026" y="-373.3" font-family="Times,serif" font-size="14.00">SubscriberOpenVouchers</text>
</g>
<!-- AttendanceByShow -->
<g id="node16" class="node"><title>AttendanceByShow</title>
<polygon fill="none" stroke="black" points="2246.25,-395 2121.75,-395 2121.75,-359 2246.25,-359 2246.25,-395"/>
<text text-anchor="middle" x="2184" y="-373.3" font-family="Times,serif" font-size="14.00">AttendanceByShow</text>
</g>
<!-- TicketOffer -->
<g id="node17" class="node"><title>TicketOffer</title>
<polygon fill="none" stroke="black" points="2345,-395 2265,-395 2265,-359 2345,-359 2345,-395"/>
<text text-anchor="middle" x="2305" y="-373.3" font-family="Times,serif" font-size="14.00">TicketOffer</text>
</g>
<!-- Seatmap -->
<g id="node18" class="node"><title>Seatmap</title>
<ellipse fill="none" stroke="black" cx="936" cy="-268" rx="41.394" ry="18"/>
<text text-anchor="middle" x="936" y="-264.3" font-family="Times,serif" font-size="14.00">Seatmap</text>
</g>
<!-- Showdate -->
<g id="node28" class="node"><title>Showdate</title>
<ellipse fill="none" stroke="black" cx="911" cy="-180" rx="45.244" ry="18"/>
<text text-anchor="middle" x="911" y="-176.3" font-family="Times,serif" font-size="14.00">Showdate</text>
</g>
<!-- Seatmap&#45;&gt;Showdate -->
<g id="edge8" class="edge"><title>Seatmap&#45;&gt;Showdate</title>
<path fill="none" stroke="#c2f3e8" d="M929.346,-242.046C927.079,-233.742 924.488,-224.456 922,-216 921.218,-213.342 920.384,-210.577 919.538,-207.817"/>
<ellipse fill="none" stroke="#c2f3e8" cx="930.443" cy="-246.095" rx="4.00001" ry="4.00001"/>
<polygon fill="#c2f3e8" stroke="#c2f3e8" points="919.47,-207.599 920.793,-196.713 917.983,-202.825 916.497,-198.052 916.497,-198.052 916.497,-198.052 917.983,-202.825 912.2,-199.39 919.47,-207.599 919.47,-207.599"/>
</g>
<!-- AccountCode -->
<g id="node19" class="node"><title>AccountCode</title>
<ellipse fill="none" stroke="black" cx="896" cy="-377" rx="59.2173" ry="18"/>
<text text-anchor="middle" x="896" y="-373.3" font-family="Times,serif" font-size="14.00">AccountCode</text>
</g>
<!-- AccountCode&#45;&gt;Donation -->
<g id="edge9" class="edge"><title>AccountCode&#45;&gt;Donation</title>
<path fill="none" stroke="#768d18" d="M861.262,-356.996C828.694,-339.053 778.75,-311.211 736,-286 687.039,-257.125 631.108,-222.197 597.188,-200.794"/>
<ellipse fill="none" stroke="#768d18" cx="864.838" cy="-358.963" rx="4.00002" ry="4.00002"/>
<polygon fill="#768d18" stroke="#768d18" points="597.096,-200.736 591.046,-191.59 592.869,-198.065 588.643,-195.394 588.643,-195.394 588.643,-195.394 592.869,-198.065 586.239,-199.199 597.096,-200.736 597.096,-200.736"/>
</g>
<!-- Vouchertype -->
<g id="node25" class="node"><title>Vouchertype</title>
<ellipse fill="none" stroke="black" cx="1081" cy="-268" rx="55.3436" ry="18"/>
<text text-anchor="middle" x="1081" y="-264.3" font-family="Times,serif" font-size="14.00">Vouchertype</text>
</g>
<!-- AccountCode&#45;&gt;Vouchertype -->
<g id="edge10" class="edge"><title>AccountCode&#45;&gt;Vouchertype</title>
<path fill="none" stroke="#5e49b0" d="M929.439,-356.66C962.444,-337.57 1012.69,-308.508 1046.17,-289.145"/>
<ellipse fill="none" stroke="#5e49b0" cx="925.969" cy="-358.667" rx="4.00002" ry="4.00002"/>
<polygon fill="#5e49b0" stroke="#5e49b0" points="1046.48,-288.964 1057.39,-287.852 1050.81,-286.46 1055.14,-283.957 1055.14,-283.957 1055.14,-283.957 1050.81,-286.46 1052.89,-280.062 1046.48,-288.964 1046.48,-288.964"/>
</g>
<!-- ValidVoucher -->
<g id="node20" class="node"><title>ValidVoucher</title>
<ellipse fill="none" stroke="black" cx="1112" cy="-92" rx="60.1672" ry="18"/>
<text text-anchor="middle" x="1112" y="-88.3" font-family="Times,serif" font-size="14.00">ValidVoucher</text>
</g>
<!-- Item -->
<g id="node21" class="node"><title>Item</title>
<ellipse fill="none" stroke="black" cx="477" cy="-180" rx="26.949" ry="18"/>
<text text-anchor="middle" x="477" y="-176.3" font-family="Times,serif" font-size="14.00">Item</text>
</g>
<!-- Item&#45;&gt;RefundedItem -->
<g id="edge11" class="edge"><title>Item&#45;&gt;RefundedItem</title>
<path fill="none" stroke="#551145" d="M490.086,-155.474C506.763,-125.494 535.451,-73.9199 552.379,-43.4866"/>
<ellipse fill="none" stroke="#551145" cx="487.968" cy="-159.282" rx="4.00002" ry="4.00002"/>
<ellipse fill="#551145" stroke="#551145" cx="554.471" cy="-39.7264" rx="4.00002" ry="4.00002"/>
</g>
<!-- Option -->
<g id="node22" class="node"><title>Option</title>
<ellipse fill="none" stroke="black" cx="2398" cy="-377" rx="35.1455" ry="18"/>
<text text-anchor="middle" x="2398" y="-373.3" font-family="Times,serif" font-size="14.00">Option</text>
</g>
<!-- Order&#45;&gt;Item -->
<g id="edge12" class="edge"><title>Order&#45;&gt;Item</title>
<path fill="none" stroke="#628279" d="M412.663,-246.094C425.608,-232.997 442.263,-216.145 455.385,-202.87"/>
<ellipse fill="none" stroke="#628279" cx="409.618" cy="-249.175" rx="4.00002" ry="4.00002"/>
<polygon fill="#628279" stroke="#628279" points="455.617,-202.634 465.848,-198.685 459.132,-199.078 462.647,-195.522 462.647,-195.522 462.647,-195.522 459.132,-199.078 459.446,-192.359 455.617,-202.634 455.617,-202.634"/>
</g>
<!-- Order&#45;&gt;Voucher -->
<g id="edge13" class="edge"><title>Order&#45;&gt;Voucher</title>
<path fill="none" stroke="#4ad339" d="M423.443,-253.189C426.318,-252.062 429.201,-250.982 432,-250 513.001,-221.598 549.208,-249.338 618,-198 647.45,-176.022 633.802,-151.562 662,-128 674.181,-117.822 689.703,-110.32 704.255,-104.932"/>
<ellipse fill="none" stroke="#4ad339" cx="419.623" cy="-254.738" rx="4.00001" ry="4.00001"/>
<polygon fill="#4ad339" stroke="#4ad339" points="704.666,-104.79 715.587,-105.787 709.393,-103.161 714.121,-101.532 714.121,-101.532 714.121,-101.532 709.393,-103.161 712.655,-97.2777 704.666,-104.79 704.666,-104.79"/>
</g>
<!-- Order&#45;&gt;Donation -->
<g id="edge14" class="edge"><title>Order&#45;&gt;Donation</title>
<path fill="none" stroke="#1d0488" d="M422.655,-251.849C452.555,-237.071 498.036,-214.591 529.723,-198.93"/>
<ellipse fill="none" stroke="#1d0488" cx="418.692" cy="-253.807" rx="4.00002" ry="4.00002"/>
<polygon fill="#1d0488" stroke="#1d0488" points="530.117,-198.735 541.075,-198.339 534.599,-196.52 539.082,-194.305 539.082,-194.305 539.082,-194.305 534.599,-196.52 537.088,-190.27 530.117,-198.735 530.117,-198.735"/>
</g>
<!-- Order&#45;&gt;RetailItem -->
<g id="edge15" class="edge"><title>Order&#45;&gt;RetailItem</title>
<path fill="none" stroke="#947bd7" d="M389.652,-241.756C388.675,-231.259 387.539,-219.049 386.543,-208.34"/>
<ellipse fill="none" stroke="#947bd7" cx="390.049" cy="-246.026" rx="4" ry="4"/>
<polygon fill="#947bd7" stroke="#947bd7" points="386.531,-208.207 390.085,-197.833 386.068,-203.228 385.605,-198.25 385.605,-198.25 385.605,-198.25 386.068,-203.228 381.124,-198.667 386.531,-208.207 386.531,-208.207"/>
</g>
<!-- Customer -->
<g id="node24" class="node"><title>Customer</title>
<ellipse fill="none" stroke="black" cx="549" cy="-377" rx="45.244" ry="18"/>
<text text-anchor="middle" x="549" y="-373.3" font-family="Times,serif" font-size="14.00">Customer</text>
</g>
<!-- Label -->
<g id="node26" class="node"><title>Label</title>
<ellipse fill="none" stroke="black" cx="620" cy="-268" rx="30.3206" ry="18"/>
<text text-anchor="middle" x="620" y="-264.3" font-family="Times,serif" font-size="14.00">Label</text>
</g>
<!-- Customer&#45;&gt;Label -->
<g id="edge16" class="edge"><title>Customer&#45;&gt;Label</title>
<path fill="none" stroke="#65bb9c" d="M565.727,-350.791C577.254,-333.421 592.486,-310.464 603.879,-293.294"/>
<polygon fill="#65bb9c" stroke="#65bb9c" points="565.623,-350.949 556.344,-356.793 562.858,-355.115 560.094,-359.281 560.094,-359.281 560.094,-359.281 562.858,-355.115 563.843,-361.769 565.623,-350.949 565.623,-350.949"/>
<polygon fill="#65bb9c" stroke="#65bb9c" points="603.918,-293.236 613.197,-287.392 606.683,-289.07 609.447,-284.903 609.447,-284.903 609.447,-284.903 606.683,-289.07 605.698,-282.415 603.918,-293.236 603.918,-293.236"/>
</g>
<!-- Customer&#45;&gt;Voucher -->
<g id="edge17" class="edge"><title>Customer&#45;&gt;Voucher</title>
<path fill="none" stroke="#8c5710" d="M579.52,-356.671C603.575,-340.217 636.673,-314.726 659,-286 680.56,-258.261 719.712,-165.335 738.452,-119.301"/>
<ellipse fill="none" stroke="#8c5710" cx="575.998" cy="-359.041" rx="4.00002" ry="4.00002"/>
<polygon fill="#8c5710" stroke="#8c5710" points="738.478,-119.237 746.404,-111.659 740.355,-114.603 742.233,-109.969 742.233,-109.969 742.233,-109.969 740.355,-114.603 738.062,-108.279 738.478,-119.237 738.478,-119.237"/>
</g>
<!-- Customer&#45;&gt;Vouchertype -->
<g id="edge18" class="edge"><title>Customer&#45;&gt;Vouchertype</title>
<path fill="none" stroke="#bd8718" d="M598.658,-366.012C698.072,-346.017 920.924,-301.196 1025.2,-280.223"/>
<polygon fill="#bd8718" stroke="#bd8718" points="598.356,-366.073 587.664,-363.633 593.454,-367.059 588.552,-368.045 588.552,-368.045 588.552,-368.045 593.454,-367.059 589.439,-372.457 598.356,-366.073 598.356,-366.073"/>
<polygon fill="#bd8718" stroke="#bd8718" points="1025.41,-280.181 1036.1,-282.62 1030.31,-279.195 1035.21,-278.209 1035.21,-278.209 1035.21,-278.209 1030.31,-279.195 1034.33,-273.797 1025.41,-280.181 1025.41,-280.181"/>
</g>
<!-- Customer&#45;&gt;Showdate -->
<g id="edge19" class="edge"><title>Customer&#45;&gt;Showdate</title>
<path fill="none" stroke="#33234f" d="M596.013,-364.036C650.314,-349.329 741.592,-321.85 815,-286 854.211,-266.85 871.356,-267.307 897,-232 902.008,-225.105 905.225,-216.506 907.291,-208.345"/>
<polygon fill="#33234f" stroke="#33234f" points="595.977,-364.045 585.153,-362.285 591.147,-365.339 586.317,-366.632 586.317,-366.632 586.317,-366.632 591.147,-365.339 587.481,-370.979 595.977,-364.045 595.977,-364.045"/>
<polygon fill="#33234f" stroke="#33234f" points="907.322,-208.197 913.749,-199.312 908.331,-203.3 909.341,-198.403 909.341,-198.403 909.341,-198.403 908.331,-203.3 904.934,-197.494 907.322,-208.197 907.322,-208.197"/>
</g>
<!-- Customer&#45;&gt;Order -->
<g id="edge20" class="edge"><title>Customer&#45;&gt;Order</title>
<path fill="none" stroke="#c2da0b" d="M498.63,-368.381C467.442,-361.093 428.915,-347.007 405,-320 399.229,-313.483 395.953,-304.754 394.114,-296.361"/>
<ellipse fill="none" stroke="#c2da0b" cx="502.893" cy="-369.317" rx="4.00001" ry="4.00001"/>
<polygon fill="#c2da0b" stroke="#c2da0b" points="394.11,-296.334 396.955,-285.744 393.311,-291.399 392.513,-286.463 392.513,-286.463 392.513,-286.463 393.311,-291.399 388.071,-287.181 394.11,-296.334 394.11,-296.334"/>
</g>
<!-- Txn -->
<g id="node27" class="node"><title>Txn</title>
<ellipse fill="none" stroke="black" cx="468" cy="-268" rx="27" ry="18"/>
<text text-anchor="middle" x="468" y="-264.3" font-family="Times,serif" font-size="14.00">Txn</text>
</g>
<!-- Customer&#45;&gt;Txn -->
<g id="edge21" class="edge"><title>Customer&#45;&gt;Txn</title>
<path fill="none" stroke="#4eb0b6" d="M498.05,-369.551C467.268,-362.739 430.356,-348.743 411,-320 407.028,-314.102 407.528,-310.206 411,-304 414.23,-298.226 425.879,-290.657 437.811,-284.036"/>
<ellipse fill="none" stroke="#4eb0b6" cx="502.219" cy="-370.407" rx="4.00001" ry="4.00001"/>
<polygon fill="#4eb0b6" stroke="#4eb0b6" points="438.037,-283.915 448.977,-283.171 442.446,-281.559 446.856,-279.202 446.856,-279.202 446.856,-279.202 442.446,-281.559 444.735,-275.234 438.037,-283.915 438.037,-283.915"/>
</g>
<!-- Customer&#45;&gt;Txn -->
<g id="edge22" class="edge"><title>Customer&#45;&gt;Txn</title>
<path fill="none" stroke="#022def" d="M501.23,-366.275C475.703,-358.385 446.431,-344.404 431,-320 423.767,-308.561 432.167,-296.268 442.779,-286.616"/>
<ellipse fill="none" stroke="#022def" cx="505.171" cy="-367.418" rx="4.00001" ry="4.00001"/>
<ellipse fill="#022def" stroke="#022def" cx="446.112" cy="-283.831" rx="4.00002" ry="4.00002"/>
<text text-anchor="middle" x="476.5" y="-308.3" font-family="Times,serif" font-size="14.00">most_recent_txn</text>
</g>
<!-- Customer&#45;&gt;Donation -->
<g id="edge23" class="edge"><title>Customer&#45;&gt;Donation</title>
<path fill="none" stroke="#d02ffe" d="M551.206,-350.698C554.401,-314.045 560.296,-246.431 563.598,-208.555"/>
<ellipse fill="none" stroke="#d02ffe" cx="550.856" cy="-354.71" rx="4" ry="4"/>
<polygon fill="#d02ffe" stroke="#d02ffe" points="563.626,-208.228 568.978,-198.657 564.06,-203.247 564.495,-198.266 564.495,-198.266 564.495,-198.266 564.06,-203.247 560.012,-197.875 563.626,-208.228 563.626,-208.228"/>
</g>
<!-- Customer&#45;&gt;RetailItem -->
<g id="edge24" class="edge"><title>Customer&#45;&gt;RetailItem</title>
<path fill="none" stroke="#53f6c7" d="M497.542,-370.509C448.218,-362.019 377.598,-340.482 352,-286 339.733,-259.891 353.162,-227.946 366.187,-206.196"/>
<ellipse fill="none" stroke="#53f6c7" cx="501.622" cy="-371.17" rx="4.00001" ry="4.00001"/>
<polygon fill="#53f6c7" stroke="#53f6c7" points="366.316,-205.992 375.47,-199.954 368.992,-201.769 371.669,-197.545 371.669,-197.545 371.669,-197.545 368.992,-201.769 367.868,-195.137 366.316,-205.992 366.316,-205.992"/>
</g>
<!-- Customer&#45;&gt;Item -->
<g id="edge25" class="edge"><title>Customer&#45;&gt;Item</title>
<path fill="none" stroke="#11dab3" d="M540.359,-351.112C531.456,-325.638 517.073,-284.943 504,-250 498.701,-235.835 492.574,-220.127 487.498,-207.282"/>
<ellipse fill="none" stroke="#11dab3" cx="541.73" cy="-355.045" rx="4.00001" ry="4.00001"/>
<polygon fill="#11dab3" stroke="#11dab3" points="487.375,-206.973 487.871,-196.018 485.531,-202.325 483.688,-197.678 483.688,-197.678 483.688,-197.678 485.531,-202.325 479.505,-199.337 487.375,-206.973 487.375,-206.973"/>
</g>
<!-- Vouchertype&#45;&gt;ValidVoucher -->
<g id="edge26" class="edge"><title>Vouchertype&#45;&gt;ValidVoucher</title>
<path fill="none" stroke="#2f430d" d="M1129.04,-251.927C1137.77,-246.977 1145.76,-240.482 1151,-232 1175.3,-192.681 1169.83,-170.211 1151,-128 1149.02,-123.56 1146.17,-119.449 1142.89,-115.723"/>
<ellipse fill="none" stroke="#2f430d" cx="1125.48" cy="-253.751" rx="4.00002" ry="4.00002"/>
<polygon fill="#2f430d" stroke="#2f430d" points="1142.83,-115.663 1138.88,-105.432 1139.28,-112.148 1135.72,-108.632 1135.72,-108.632 1135.72,-108.632 1139.28,-112.148 1132.56,-111.832 1142.83,-115.663 1142.83,-115.663"/>
</g>
<!-- Vouchertype&#45;&gt;Voucher -->
<g id="edge27" class="edge"><title>Vouchertype&#45;&gt;Voucher</title>
<path fill="none" stroke="#4c85a1" d="M1106.85,-245.224C1110.17,-241.19 1113.08,-236.739 1115,-232 1130.43,-193.982 1117.95,-157.704 1078,-128 1035.21,-96.1821 881.437,-92.1065 800.169,-92.2688"/>
<ellipse fill="none" stroke="#4c85a1" cx="1104.08" cy="-248.253" rx="4.00002" ry="4.00002"/>
<polygon fill="#4c85a1" stroke="#4c85a1" points="799.677,-92.2708 789.658,-87.8142 794.677,-92.2925 789.678,-92.3142 789.678,-92.3142 789.678,-92.3142 794.677,-92.2925 789.697,-96.8141 799.677,-92.2708 799.677,-92.2708"/>
</g>
<!-- Vouchertype&#45;&gt;Showdate -->
<g id="edge28" class="edge"><title>Vouchertype&#45;&gt;Showdate</title>
<path fill="none" stroke="#02094d" d="M1098.78,-241.511C1102.65,-232.709 1104.02,-223.248 1098,-216 1081.45,-196.071 1014.99,-187.424 965.984,-183.715"/>
<polygon fill="#02094d" stroke="#02094d" points="1098.78,-241.514 1090.08,-248.197 1096.41,-245.919 1094.05,-250.325 1094.05,-250.325 1094.05,-250.325 1096.41,-245.919 1098.01,-252.453 1098.78,-241.514 1098.78,-241.514"/>
<polygon fill="#02094d" stroke="#02094d" points="965.791,-183.702 956.134,-178.508 960.804,-183.349 955.816,-182.997 955.816,-182.997 955.816,-182.997 960.804,-183.349 955.499,-187.485 965.791,-183.702 965.791,-183.702"/>
</g>
<!-- Showdate&#45;&gt;Voucher -->
<g id="edge29" class="edge"><title>Showdate&#45;&gt;Voucher</title>
<path fill="none" stroke="#ccbc36" d="M864.052,-169.102C822.129,-160.077 766.748,-147.617 763,-144 756.612,-137.836 753.052,-129.053 751.095,-120.508"/>
<ellipse fill="none" stroke="#ccbc36" cx="868.062" cy="-169.962" rx="4.00001" ry="4.00001"/>
<polygon fill="#ccbc36" stroke="#ccbc36" points="751.055,-120.263 753.861,-109.662 750.238,-115.33 749.421,-110.397 749.421,-110.397 749.421,-110.397 750.238,-115.33 744.982,-111.132 751.055,-120.263 751.055,-120.263"/>
</g>
<!-- Showdate&#45;&gt;Voucher -->
<g id="edge30" class="edge"><title>Showdate&#45;&gt;Voucher</title>
<path fill="none" stroke="#7da992" d="M863.11,-169.563C832.403,-162.827 795.95,-153.34 783,-144 774.067,-137.557 766.8,-127.988 761.312,-118.873"/>
<ellipse fill="none" stroke="#7da992" cx="867.274" cy="-170.459" rx="4.00001" ry="4.00001"/>
<polygon fill="#7da992" stroke="#7da992" points="761.266,-118.79 760.357,-107.862 758.843,-114.416 756.42,-110.042 756.42,-110.042 756.42,-110.042 758.843,-114.416 752.484,-112.223 761.266,-118.79 761.266,-118.79"/>
<text text-anchor="middle" x="834.5" y="-132.3" font-family="Times,serif" font-size="14.00">finalized_vouchers</text>
</g>
<!-- Showdate&#45;&gt;Voucher -->
<g id="edge31" class="edge"><title>Showdate&#45;&gt;Voucher</title>
<path fill="none" stroke="#517011" d="M903.86,-154.259C899.984,-144.809 894.249,-134.706 886,-128 861.655,-108.209 827.472,-99.4558 799.342,-95.6517"/>
<ellipse fill="none" stroke="#517011" cx="905.31" cy="-158.2" rx="4.00001" ry="4.00001"/>
<polygon fill="#517011" stroke="#517011" points="799.213,-95.6365 789.81,-89.994 794.247,-95.0497 789.282,-94.4629 789.282,-94.4629 789.282,-94.4629 794.247,-95.0497 788.754,-98.9318 799.213,-95.6365 799.213,-95.6365"/>
<text text-anchor="middle" x="934" y="-132.3" font-family="Times,serif" font-size="14.00">all_vouchers</text>
</g>
<!-- Showdate&#45;&gt;Voucher -->
<g id="edge32" class="edge"><title>Showdate&#45;&gt;Voucher</title>
<path fill="none" stroke="#0037bb" d="M950.697,-163.667C969.098,-154.305 984.601,-141.555 973,-128 951.149,-102.47 858.796,-95.426 799.71,-93.5655"/>
<ellipse fill="none" stroke="#0037bb" cx="946.882" cy="-165.487" rx="4.00002" ry="4.00002"/>
<polygon fill="#0037bb" stroke="#0037bb" points="799.445,-93.5584 789.572,-88.7853 794.447,-93.421 789.449,-93.2836 789.449,-93.2836 789.449,-93.2836 794.447,-93.421 789.325,-97.7819 799.445,-93.5584 799.445,-93.5584"/>
<text text-anchor="middle" x="1026" y="-132.3" font-family="Times,serif" font-size="14.00">walkup_vouchers</text>
</g>
<!-- Showdate&#45;&gt;Vouchertype -->
<g id="edge33" class="edge"><title>Showdate&#45;&gt;Vouchertype</title>
<path fill="none" stroke="#5bbc9c" d="M932.022,-204.757C941.578,-214.355 953.527,-224.833 966,-232 984.111,-242.407 1005.64,-250.027 1025.14,-255.447"/>
<polygon fill="#5bbc9c" stroke="#5bbc9c" points="931.825,-204.551 928.157,-194.217 928.366,-200.941 924.908,-197.33 924.908,-197.33 924.908,-197.33 928.366,-200.941 921.658,-200.442 931.825,-204.551 931.825,-204.551"/>
<polygon fill="#5bbc9c" stroke="#5bbc9c" points="1025.16,-255.452 1033.68,-262.36 1030,-256.731 1034.83,-258.009 1034.83,-258.009 1034.83,-258.009 1030,-256.731 1035.98,-253.659 1025.16,-255.452 1025.16,-255.452"/>
<text text-anchor="middle" x="1030" y="-220.3" font-family="Times,serif" font-size="14.00">available_vouchertypes</text>
</g>
<!-- Showdate&#45;&gt;ValidVoucher -->
<g id="edge34" class="edge"><title>Showdate&#45;&gt;ValidVoucher</title>
<path fill="none" stroke="#4d693e" d="M964.616,-178.023C999.524,-175.049 1044.61,-166.586 1078,-144 1087.12,-137.829 1094.43,-128.312 1099.89,-119.163"/>
<ellipse fill="none" stroke="#4d693e" cx="960.416" cy="-178.337" rx="4" ry="4"/>
<polygon fill="#4d693e" stroke="#4d693e" points="1099.95,-119.052 1108.69,-112.429 1102.35,-114.663 1104.74,-110.274 1104.74,-110.274 1104.74,-110.274 1102.35,-114.663 1100.79,-108.118 1099.95,-119.052 1099.95,-119.052"/>
</g>
<!-- Show -->
<g id="node29" class="node"><title>Show</title>
<ellipse fill="none" stroke="black" cx="776" cy="-268" rx="30.3206" ry="18"/>
<text text-anchor="middle" x="776" y="-264.3" font-family="Times,serif" font-size="14.00">Show</text>
</g>
<!-- Show&#45;&gt;Showdate -->
<g id="edge35" class="edge"><title>Show&#45;&gt;Showdate</title>
<path fill="none" stroke="#e32650" d="M777.847,-241.635C779.718,-232.513 783.286,-222.806 790,-216 795.422,-210.504 831.681,-200.421 863.107,-192.484"/>
<ellipse fill="none" stroke="#e32650" cx="777.189" cy="-245.797" rx="4.00001" ry="4.00001"/>
<polygon fill="#e32650" stroke="#e32650" points="863.393,-192.413 874.185,-194.357 868.244,-191.202 873.095,-189.991 873.095,-189.991 873.095,-189.991 868.244,-191.202 872.005,-185.625 863.393,-192.413 863.393,-192.413"/>
</g>
<!-- Show&#45;&gt;Showdate -->
<g id="edge36" class="edge"><title>Show&#45;&gt;Showdate</title>
<path fill="none" stroke="#41889e" d="M787.531,-243.135C793.164,-233.577 800.742,-223.158 810,-216 825.277,-204.187 844.824,-196.195 862.643,-190.869"/>
<ellipse fill="none" stroke="#41889e" cx="785.548" cy="-246.71" rx="4.00002" ry="4.00002"/>
<ellipse fill="#41889e" stroke="#41889e" cx="866.837" cy="-189.689" rx="4.00001" ry="4.00001"/>
<text text-anchor="middle" x="853.5" y="-220.3" font-family="Times,serif" font-size="14.00">latest_showdate</text>
</g>
<!-- Show&#45;&gt;Voucher -->
<g id="edge37" class="edge"><title>Show&#45;&gt;Voucher</title>
<path fill="none" stroke="#b90b36" d="M760.72,-242.022C753.839,-229.332 746.488,-213.376 743,-198 737.092,-171.952 739.895,-141.387 743.383,-119.974"/>
<polygon fill="#b90b36" stroke="#b90b36" points="760.891,-242.325 761.902,-253.244 763.354,-246.676 765.818,-251.027 765.818,-251.027 765.818,-251.027 763.354,-246.676 769.734,-248.809 760.891,-242.325 760.891,-242.325"/>
<polygon fill="#b90b36" stroke="#b90b36" points="743.411,-119.814 749.6,-110.761 744.291,-114.892 745.171,-109.97 745.171,-109.97 745.171,-109.97 744.291,-114.892 740.741,-109.178 743.411,-119.814 743.411,-119.814"/>
</g>
<!-- Import -->
<g id="node32" class="node"><title>Import</title>
<ellipse fill="none" stroke="black" cx="787" cy="-180" rx="35.1455" ry="18"/>
<text text-anchor="middle" x="787" y="-176.3" font-family="Times,serif" font-size="14.00">Import</text>
</g>
<!-- Show&#45;&gt;Import -->
<g id="edge38" class="edge"><title>Show&#45;&gt;Import</title>
<path fill="none" stroke="#9ebdf4" d="M765.828,-242.58C763.589,-234.102 762.529,-224.574 765,-216 766.004,-212.515 767.469,-209.042 769.174,-205.713"/>
<ellipse fill="none" stroke="#9ebdf4" cx="767.061" cy="-246.504" rx="4.00001" ry="4.00001"/>
<polygon fill="#9ebdf4" stroke="#9ebdf4" points="769.343,-205.426 778.304,-199.105 771.886,-201.121 774.429,-196.816 774.429,-196.816 774.429,-196.816 771.886,-201.121 770.555,-194.528 769.343,-205.426 769.343,-205.426"/>
</g>
<!-- Report -->
<g id="node30" class="node"><title>Report</title>
<polygon fill="none" stroke="black" points="2505,-395 2451,-395 2451,-359 2505,-359 2505,-395"/>
<text text-anchor="middle" x="2478" y="-373.3" font-family="Times,serif" font-size="14.00">Report</text>
</g>
<!-- Store -->
<g id="node31" class="node"><title>Store</title>
<polygon fill="none" stroke="black" points="2577,-395 2523,-395 2523,-359 2577,-359 2577,-395"/>
<text text-anchor="middle" x="2550" y="-373.3" font-family="Times,serif" font-size="14.00">Store</text>
</g>
</g>
</svg>
