<?xml version="1.0" encoding="UTF-8" standalone="no"?>
<!DOCTYPE svg PUBLIC "-//W3C//DTD SVG 1.1//EN"
 "http://www.w3.org/Graphics/SVG/1.1/DTD/svg11.dtd">
<!-- Generated by graphviz version 2.38.0 (20140413.2041)
 -->
<!-- Title: models_diagram Pages: 1 -->
<svg width="4041pt" height="347pt"
 viewBox="0.00 0.00 4040.94 347.00" xmlns="http://www.w3.org/2000/svg" xmlns:xlink="http://www.w3.org/1999/xlink">
<g id="graph0" class="graph" transform="scale(1 1) rotate(0) translate(4 343)">
<title>models_diagram</title>
<polygon fill="none" stroke="none" points="-4,4 -4,-343 4036.94,-343 4036.94,4 -4,4"/>
<!-- _diagram_info -->
<g id="node1" class="node"><title>_diagram_info</title>
<text text-anchor="start" x="208.445" y="-324.6" font-family="Times,serif" font-size="13.00">Models diagram</text>
<text text-anchor="start" x="208.445" y="-310.6" font-family="Times,serif" font-size="13.00">Date: Oct 20 2017 &#45; 14:35</text>
<text text-anchor="start" x="208.445" y="-296.6" font-family="Times,serif" font-size="13.00">Migration version: 20170628202024</text>
<text text-anchor="start" x="208.445" y="-282.6" font-family="Times,serif" font-size="13.00">Generated by RailRoady DEV</text>
<text text-anchor="start" x="208.445" y="-268.6" font-family="Times,serif" font-size="13.00">http://railroady.prestonlee.com</text>
</g>
<!-- Vouchertype -->
<g id="node2" class="node"><title>Vouchertype</title>
<ellipse fill="none" stroke="black" cx="284.445" cy="-192" rx="55.7903" ry="18"/>
<text text-anchor="middle" x="284.445" y="-188.3" font-family="Times,serif" font-size="14.00">Vouchertype</text>
</g>
<!-- ValidVoucher -->
<g id="node17" class="node"><title>ValidVoucher</title>
<ellipse fill="none" stroke="black" cx="60.4446" cy="-18" rx="60.3893" ry="18"/>
<text text-anchor="middle" x="60.4446" y="-14.3" font-family="Times,serif" font-size="14.00">ValidVoucher</text>
</g>
<!-- Vouchertype&#45;&gt;ValidVoucher -->
<g id="edge1" class="edge"><title>Vouchertype&#45;&gt;ValidVoucher</title>
<path fill="none" stroke="#467ad7" d="M235.73,-177.632C230.256,-176.317 224.744,-175.074 219.445,-174 164.866,-162.937 141.523,-187.273 95.4446,-156 60.7708,-132.468 56.7764,-79.4035 57.964,-46.6551"/>
<ellipse fill="none" stroke="#467ad7" cx="239.809" cy="-178.639" rx="4.00001" ry="4.00001"/>
<polygon fill="#467ad7" stroke="#467ad7" points="57.9788,-46.3848 63.0218,-36.6473 58.2537,-41.3923 58.5286,-36.3999 58.5286,-36.3999 58.5286,-36.3999 58.2537,-41.3923 54.0354,-36.1525 57.9788,-46.3848 57.9788,-46.3848"/>
</g>
<!-- Voucher -->
<g id="node29" class="node"><title>Voucher</title>
<ellipse fill="none" stroke="black" cx="334.445" cy="-18" rx="40.8928" ry="18"/>
<text text-anchor="middle" x="334.445" y="-14.3" font-family="Times,serif" font-size="14.00">Voucher</text>
</g>
<!-- Vouchertype&#45;&gt;Voucher -->
<g id="edge2" class="edge"><title>Vouchertype&#45;&gt;Voucher</title>
<path fill="none" stroke="#00ade2" d="M291.851,-166.272C299.201,-141.647 310.741,-102.75 320.445,-69 322.602,-61.4953 324.903,-53.3445 327.002,-45.844"/>
<ellipse fill="none" stroke="#00ade2" cx="290.673" cy="-170.216" rx="4.00001" ry="4.00001"/>
<polygon fill="#00ade2" stroke="#00ade2" points="327.022,-45.7735 334.043,-37.3501 328.365,-40.9573 329.709,-36.1411 329.709,-36.1411 329.709,-36.1411 328.365,-40.9573 325.374,-34.9322 327.022,-45.7735 327.022,-45.7735"/>
</g>
<!-- Showdate -->
<g id="node42" class="node"><title>Showdate</title>
<ellipse fill="none" stroke="black" cx="130.445" cy="-105" rx="45.4919" ry="18"/>
<text text-anchor="middle" x="130.445" y="-101.3" font-family="Times,serif" font-size="14.00">Showdate</text>
</g>
<!-- Vouchertype&#45;&gt;Showdate -->
<g id="edge3" class="edge"><title>Vouchertype&#45;&gt;Showdate</title>
<path fill="none" stroke="#8ea2b9" d="M264.258,-166.472C255.817,-157.459 245.419,-147.805 234.445,-141 217.641,-130.582 197.37,-122.858 179.204,-117.357"/>
<polygon fill="#8ea2b9" stroke="#8ea2b9" points="264.46,-166.697 267.789,-177.145 267.799,-170.419 271.139,-174.14 271.139,-174.14 271.139,-174.14 267.799,-170.419 274.488,-171.135 264.46,-166.697 264.46,-166.697"/>
<polygon fill="#8ea2b9" stroke="#8ea2b9" points="178.974,-117.291 170.608,-110.202 174.169,-115.909 169.364,-114.526 169.364,-114.526 169.364,-114.526 174.169,-115.909 168.12,-118.851 178.974,-117.291 178.974,-117.291"/>
</g>
<!-- TicketOffer -->
<g id="node3" class="node"><title>TicketOffer</title>
<polygon fill="none" stroke="black" points="825.445,-318 745.445,-318 745.445,-282 825.445,-282 825.445,-318"/>
<text text-anchor="middle" x="785.445" y="-296.3" font-family="Times,serif" font-size="14.00">TicketOffer</text>
</g>
<!-- GoldstarCsvImport -->
<g id="node4" class="node"><title>GoldstarCsvImport</title>
<ellipse fill="none" stroke="black" cx="1030.44" cy="-192" rx="79.0865" ry="18"/>
<text text-anchor="middle" x="1030.44" y="-188.3" font-family="Times,serif" font-size="14.00">GoldstarCsvImport</text>
</g>
<!-- Import -->
<g id="node13" class="node"><title>Import</title>
<ellipse fill="none" stroke="black" cx="1131.44" cy="-105" rx="35.194" ry="18"/>
<text text-anchor="middle" x="1131.44" y="-101.3" font-family="Times,serif" font-size="14.00">Import</text>
</g>
<!-- GoldstarCsvImport&#45;&gt;Import -->
<g id="edge4" class="edge"><title>GoldstarCsvImport&#45;&gt;Import</title>
<path fill="none" stroke="#68bfe4" d="M1056.76,-168.85C1071.95,-156.068 1090.96,-140.072 1106,-127.417"/>
<ellipse fill="none" stroke="#68bfe4" cx="1053.46" cy="-171.631" rx="4.00002" ry="4.00002"/>
<polygon fill="#68bfe4" stroke="#68bfe4" points="1106.24,-127.21 1116.79,-124.214 1110.07,-123.99 1113.89,-120.771 1113.89,-120.771 1113.89,-120.771 1110.07,-123.99 1111,-117.328 1106.24,-127.21 1106.24,-127.21"/>
<text text-anchor="middle" x="1116.94" y="-144.8" font-family="Times,serif" font-size="14.00">thumbnails</text>
</g>
<!-- BrownPaperTicketsImport -->
<g id="node5" class="node"><title>BrownPaperTicketsImport</title>
<ellipse fill="none" stroke="black" cx="1232.44" cy="-192" rx="104.782" ry="18"/>
<text text-anchor="middle" x="1232.44" y="-188.3" font-family="Times,serif" font-size="14.00">BrownPaperTicketsImport</text>
</g>
<!-- BrownPaperTicketsImport&#45;&gt;Import -->
<g id="edge5" class="edge"><title>BrownPaperTicketsImport&#45;&gt;Import</title>
<path fill="none" stroke="#94e70e" d="M1206.13,-168.85C1190.94,-156.068 1171.93,-140.072 1156.89,-127.417"/>
<ellipse fill="none" stroke="#94e70e" cx="1209.43" cy="-171.631" rx="4.00002" ry="4.00002"/>
<polygon fill="#94e70e" stroke="#94e70e" points="1156.65,-127.21 1151.89,-117.328 1152.82,-123.99 1149,-120.771 1149,-120.771 1149,-120.771 1152.82,-123.99 1146.1,-124.214 1156.65,-127.21 1156.65,-127.21"/>
<text text-anchor="middle" x="1217.94" y="-144.8" font-family="Times,serif" font-size="14.00">thumbnails</text>
</g>
<!-- GoldstarXmlImport -->
<g id="node6" class="node"><title>GoldstarXmlImport</title>
<ellipse fill="none" stroke="black" cx="1436.44" cy="-192" rx="81.4863" ry="18"/>
<text text-anchor="middle" x="1436.44" y="-188.3" font-family="Times,serif" font-size="14.00">GoldstarXmlImport</text>
</g>
<!-- GoldstarXmlImport&#45;&gt;Import -->
<g id="edge6" class="edge"><title>GoldstarXmlImport&#45;&gt;Import</title>
<path fill="none" stroke="#ef6f6b" d="M1379.71,-175.189C1319.03,-158.279 1224.38,-131.901 1171.19,-117.077"/>
<ellipse fill="none" stroke="#ef6f6b" cx="1383.93" cy="-176.364" rx="4.00001" ry="4.00001"/>
<polygon fill="#ef6f6b" stroke="#ef6f6b" points="1171.08,-117.046 1162.65,-110.026 1166.26,-115.703 1161.45,-114.361 1161.45,-114.361 1161.45,-114.361 1166.26,-115.703 1160.24,-118.696 1171.08,-117.046 1171.08,-117.046"/>
<text text-anchor="middle" x="1331.94" y="-144.8" font-family="Times,serif" font-size="14.00">thumbnails</text>
</g>
<!-- TicketSalesImport -->
<g id="node7" class="node"><title>TicketSalesImport</title>
<ellipse fill="none" stroke="black" cx="1611.44" cy="-192" rx="76.0865" ry="18"/>
<text text-anchor="middle" x="1611.44" y="-188.3" font-family="Times,serif" font-size="14.00">TicketSalesImport</text>
</g>
<!-- TicketSalesImport&#45;&gt;Import -->
<g id="edge7" class="edge"><title>TicketSalesImport&#45;&gt;Import</title>
<path fill="none" stroke="#78c0e8" d="M1549.54,-177.413C1500.11,-166.795 1429.01,-152.036 1366.44,-141 1299.98,-129.277 1222.47,-118.241 1175.19,-111.803"/>
<ellipse fill="none" stroke="#78c0e8" cx="1553.68" cy="-178.305" rx="4.00001" ry="4.00001"/>
<polygon fill="#78c0e8" stroke="#78c0e8" points="1174.91,-111.765 1165.61,-105.964 1169.96,-111.094 1165,-110.423 1165,-110.423 1165,-110.423 1169.96,-111.094 1164.4,-114.883 1174.91,-111.765 1174.91,-111.765"/>
<text text-anchor="middle" x="1470.94" y="-144.8" font-family="Times,serif" font-size="14.00">thumbnails</text>
</g>
<!-- CustomerImport -->
<g id="node8" class="node"><title>CustomerImport</title>
<ellipse fill="none" stroke="black" cx="863.445" cy="-192" rx="69.5877" ry="18"/>
<text text-anchor="middle" x="863.445" y="-188.3" font-family="Times,serif" font-size="14.00">CustomerImport</text>
</g>
<!-- CustomerImport&#45;&gt;Import -->
<g id="edge8" class="edge"><title>CustomerImport&#45;&gt;Import</title>
<path fill="none" stroke="#1d7ff2" d="M910.42,-174.238C938.943,-164.228 976.154,-151.469 1009.44,-141 1036.67,-132.44 1067.57,-123.584 1091.46,-116.922"/>
<ellipse fill="none" stroke="#1d7ff2" cx="906.389" cy="-175.656" rx="4.00001" ry="4.00001"/>
<polygon fill="#1d7ff2" stroke="#1d7ff2" points="1091.6,-116.883 1102.44,-118.545 1096.42,-115.546 1101.24,-114.209 1101.24,-114.209 1101.24,-114.209 1096.42,-115.546 1100.03,-109.872 1091.6,-116.883 1091.6,-116.883"/>
<text text-anchor="middle" x="1039.94" y="-144.8" font-family="Times,serif" font-size="14.00">thumbnails</text>
</g>
<!-- BrownPaperTicketsDownload -->
<g id="node9" class="node"><title>BrownPaperTicketsDownload</title>
<ellipse fill="none" stroke="black" cx="960.445" cy="-300" rx="116.979" ry="18"/>
<text text-anchor="middle" x="960.445" y="-296.3" font-family="Times,serif" font-size="14.00">BrownPaperTicketsDownload</text>
</g>
<!-- TbaDownload -->
<g id="node10" class="node"><title>TbaDownload</title>
<ellipse fill="none" stroke="black" cx="1156.44" cy="-300" rx="61.1893" ry="18"/>
<text text-anchor="middle" x="1156.44" y="-296.3" font-family="Times,serif" font-size="14.00">TbaDownload</text>
</g>
<!-- Option -->
<g id="node11" class="node"><title>Option</title>
<ellipse fill="none" stroke="black" cx="1270.44" cy="-300" rx="35.194" ry="18"/>
<text text-anchor="middle" x="1270.44" y="-296.3" font-family="Times,serif" font-size="14.00">Option</text>
</g>
<!-- Order -->
<g id="node12" class="node"><title>Order</title>
<ellipse fill="none" stroke="black" cx="624.445" cy="-192" rx="31.3957" ry="18"/>
<text text-anchor="middle" x="624.445" y="-188.3" font-family="Times,serif" font-size="14.00">Order</text>
</g>
<!-- Item -->
<g id="node15" class="node"><title>Item</title>
<ellipse fill="none" stroke="black" cx="468.445" cy="-105" rx="27.0966" ry="18"/>
<text text-anchor="middle" x="468.445" y="-101.3" font-family="Times,serif" font-size="14.00">Item</text>
</g>
<!-- Order&#45;&gt;Item -->
<g id="edge9" class="edge"><title>Order&#45;&gt;Item</title>
<path fill="none" stroke="#71d2d1" d="M595.32,-175.131C567.465,-159.953 525.68,-137.186 497.761,-121.973"/>
<ellipse fill="none" stroke="#71d2d1" cx="598.912" cy="-177.088" rx="4.00002" ry="4.00002"/>
<polygon fill="#71d2d1" stroke="#71d2d1" points="497.645,-121.911 491.017,-113.174 493.255,-119.518 488.864,-117.126 488.864,-117.126 488.864,-117.126 493.255,-119.518 486.711,-121.077 497.645,-121.911 497.645,-121.911"/>
</g>
<!-- Order&#45;&gt;Voucher -->
<g id="edge10" class="edge"><title>Order&#45;&gt;Voucher</title>
<path fill="none" stroke="#dedaf1" d="M630.641,-166.029C634.8,-142.85 636.636,-108.743 618.445,-87 588.832,-51.6062 457.719,-32.1638 384.438,-23.8845"/>
<ellipse fill="none" stroke="#dedaf1" cx="629.823" cy="-170.109" rx="4.00001" ry="4.00001"/>
<polygon fill="#dedaf1" stroke="#dedaf1" points="384.005,-23.8369 374.557,-18.2704 379.035,-23.2902 374.065,-22.7434 374.065,-22.7434 374.065,-22.7434 379.035,-23.2902 373.573,-27.2164 384.005,-23.8369 384.005,-23.8369"/>
</g>
<!-- Donation -->
<g id="node31" class="node"><title>Donation</title>
<ellipse fill="none" stroke="black" cx="755.445" cy="-105" rx="43.5923" ry="18"/>
<text text-anchor="middle" x="755.445" y="-101.3" font-family="Times,serif" font-size="14.00">Donation</text>
</g>
<!-- Order&#45;&gt;Donation -->
<g id="edge11" class="edge"><title>Order&#45;&gt;Donation</title>
<path fill="none" stroke="#9a5724" d="M651.108,-173.699C672.299,-159.95 701.978,-140.692 724.267,-126.23"/>
<ellipse fill="none" stroke="#9a5724" cx="647.696" cy="-175.913" rx="4.00002" ry="4.00002"/>
<polygon fill="#9a5724" stroke="#9a5724" points="724.326,-126.191 735.164,-124.523 728.521,-123.47 732.715,-120.748 732.715,-120.748 732.715,-120.748 728.521,-123.47 730.266,-116.973 724.326,-126.191 724.326,-126.191"/>
</g>
<!-- RetailItem -->
<g id="node32" class="node"><title>RetailItem</title>
<ellipse fill="none" stroke="black" cx="561.445" cy="-105" rx="48.1917" ry="18"/>
<text text-anchor="middle" x="561.445" y="-101.3" font-family="Times,serif" font-size="14.00">RetailItem</text>
</g>
<!-- Order&#45;&gt;RetailItem -->
<g id="edge12" class="edge"><title>Order&#45;&gt;RetailItem</title>
<path fill="none" stroke="#702ab0" d="M607.61,-168.287C599.009,-156.682 588.53,-142.543 579.73,-130.671"/>
<ellipse fill="none" stroke="#702ab0" cx="610.213" cy="-171.799" rx="4.00002" ry="4.00002"/>
<polygon fill="#702ab0" stroke="#702ab0" points="579.626,-130.53 577.286,-119.816 576.648,-126.513 573.671,-122.496 573.671,-122.496 573.671,-122.496 576.648,-126.513 570.056,-125.176 579.626,-130.53 579.626,-130.53"/>
</g>
<!-- Import&#45;&gt;Import -->
<g id="edge13" class="edge"><title>Import&#45;&gt;Import</title>
<path fill="none" stroke="#758596" d="M1171.39,-112.512C1179.09,-111.626 1184.54,-109.122 1184.54,-105 1184.54,-101.221 1179.96,-98.8026 1173.26,-97.7436"/>
<ellipse fill="none" stroke="#758596" cx="1167.06" cy="-112.691" rx="4" ry="4"/>
<polygon fill="#758596" stroke="#758596" points="1173.04,-97.7307 1163.33,-92.6501 1168.05,-97.4365 1163.06,-97.1423 1163.06,-97.1423 1163.06,-97.1423 1168.05,-97.4365 1162.8,-101.635 1173.04,-97.7307 1173.04,-97.7307"/>
<text text-anchor="middle" x="1215.04" y="-101.3" font-family="Times,serif" font-size="14.00">thumbnails</text>
</g>
<!-- Store -->
<g id="node14" class="node"><title>Store</title>
<polygon fill="none" stroke="black" points="1377.44,-318 1323.44,-318 1323.44,-282 1377.44,-282 1377.44,-318"/>
<text text-anchor="middle" x="1350.44" y="-296.3" font-family="Times,serif" font-size="14.00">Store</text>
</g>
<!-- Customer -->
<g id="node16" class="node"><title>Customer</title>
<ellipse fill="none" stroke="black" cx="477.445" cy="-300" rx="45.4919" ry="18"/>
<text text-anchor="middle" x="477.445" y="-296.3" font-family="Times,serif" font-size="14.00">Customer</text>
</g>
<!-- Customer&#45;&gt;Vouchertype -->
<g id="edge16" class="edge"><title>Customer&#45;&gt;Vouchertype</title>
<path fill="none" stroke="#5b5c88" d="M449.301,-277.935C441.135,-272.172 432.086,-266.111 423.445,-261 391.555,-242.14 353.685,-223.866 325.532,-211.02"/>
<polygon fill="#5b5c88" stroke="#5b5c88" points="449.316,-277.946 454.811,-287.436 453.376,-280.864 457.437,-283.781 457.437,-283.781 457.437,-283.781 453.376,-280.864 460.063,-280.126 449.316,-277.946 449.316,-277.946"/>
<polygon fill="#5b5c88" stroke="#5b5c88" points="325.491,-211.001 318.235,-202.778 320.936,-208.94 316.38,-206.878 316.38,-206.878 316.38,-206.878 320.936,-208.94 314.525,-210.978 325.491,-211.001 325.491,-211.001"/>
</g>
<!-- Customer&#45;&gt;Order -->
<g id="edge18" class="edge"><title>Customer&#45;&gt;Order</title>
<path fill="none" stroke="#99193f" d="M513.979,-282.684C534.286,-272.723 559.42,-258.866 579.445,-243 589.116,-235.337 598.469,-225.483 606.12,-216.551"/>
<ellipse fill="none" stroke="#99193f" cx="510.338" cy="-284.438" rx="4.00002" ry="4.00002"/>
<polygon fill="#99193f" stroke="#99193f" points="606.247,-216.397 616.093,-211.568 609.437,-212.547 612.627,-208.697 612.627,-208.697 612.627,-208.697 609.437,-212.547 609.162,-205.826 606.247,-216.397 606.247,-216.397"/>
</g>
<!-- Customer&#45;&gt;Item -->
<g id="edge23" class="edge"><title>Customer&#45;&gt;Item</title>
<path fill="none" stroke="#4db6ef" d="M473.497,-273.841C470.913,-256.059 467.776,-231.634 466.445,-210 465.461,-194.03 466.209,-189.998 466.445,-174 466.642,-160.573 467.059,-145.66 467.461,-133.229"/>
<ellipse fill="none" stroke="#4db6ef" cx="474.122" cy="-278.039" rx="4.00001" ry="4.00001"/>
<polygon fill="#4db6ef" stroke="#4db6ef" points="467.467,-133.038 472.302,-123.196 467.636,-128.041 467.804,-123.044 467.804,-123.044 467.804,-123.044 467.636,-128.041 463.307,-122.892 467.467,-133.038 467.467,-133.038"/>
</g>
<!-- Txn -->
<g id="node27" class="node"><title>Txn</title>
<ellipse fill="none" stroke="black" cx="183.445" cy="-192" rx="27" ry="18"/>
<text text-anchor="middle" x="183.445" y="-188.3" font-family="Times,serif" font-size="14.00">Txn</text>
</g>
<!-- Customer&#45;&gt;Txn -->
<g id="edge19" class="edge"><title>Customer&#45;&gt;Txn</title>
<path fill="none" stroke="#6b8f55" d="M453.402,-278.014C444.554,-271.439 434.083,-264.891 423.445,-261 337.963,-229.738 298.55,-288.019 219.445,-243 209.441,-237.307 201.486,-227.565 195.626,-218.185"/>
<ellipse fill="none" stroke="#6b8f55" cx="456.668" cy="-280.551" rx="4.00002" ry="4.00002"/>
<polygon fill="#6b8f55" stroke="#6b8f55" points="195.598,-218.136 194.56,-207.219 193.124,-213.791 190.65,-209.445 190.65,-209.445 190.65,-209.445 193.124,-213.791 186.739,-211.672 195.598,-218.136 195.598,-218.136"/>
</g>
<!-- Customer&#45;&gt;Txn -->
<g id="edge20" class="edge"><title>Customer&#45;&gt;Txn</title>
<path fill="none" stroke="#df4aa0" d="M453.34,-278.18C444.487,-271.619 434.028,-265.037 423.445,-261 358.647,-236.283 334.195,-265.057 268.445,-243 246.288,-235.567 223.594,-221.846 207.234,-210.655"/>
<ellipse fill="none" stroke="#df4aa0" cx="456.608" cy="-280.705" rx="4.00002" ry="4.00002"/>
<ellipse fill="#df4aa0" stroke="#df4aa0" cx="203.909" cy="-208.331" rx="4.00002" ry="4.00002"/>
<text text-anchor="middle" x="313.945" y="-231.8" font-family="Times,serif" font-size="14.00">most_recent_txn</text>
</g>
<!-- Customer&#45;&gt;Voucher -->
<g id="edge15" class="edge"><title>Customer&#45;&gt;Voucher</title>
<path fill="none" stroke="#500e0c" d="M519.215,-285.173C569.265,-267.64 648.411,-236.499 664.445,-210 683.211,-178.985 648.879,-99.4919 639.445,-87 622.721,-64.8572 612.535,-63.4485 586.445,-54 519.811,-29.8687 437.714,-22.2374 385.711,-19.9026"/>
<ellipse fill="none" stroke="#500e0c" cx="515.226" cy="-286.557" rx="4.00001" ry="4.00001"/>
<polygon fill="#500e0c" stroke="#500e0c" points="385.399,-19.8902 375.586,-14.9953 380.403,-19.691 375.407,-19.4917 375.407,-19.4917 375.407,-19.4917 380.403,-19.691 375.227,-23.9882 385.399,-19.8902 385.399,-19.8902"/>
</g>
<!-- Customer&#45;&gt;Donation -->
<g id="edge21" class="edge"><title>Customer&#45;&gt;Donation</title>
<path fill="none" stroke="#e93d25" d="M518.347,-285.056C542.12,-277.281 572.759,-267.821 600.445,-261 643.019,-250.511 663.265,-270.465 697.445,-243 731.452,-215.674 745.832,-164.767 751.681,-133.293"/>
<ellipse fill="none" stroke="#e93d25" cx="514.362" cy="-286.369" rx="4.00001" ry="4.00001"/>
<polygon fill="#e93d25" stroke="#e93d25" points="751.683,-133.285 757.791,-124.178 752.518,-128.355 753.354,-123.426 753.354,-123.426 753.354,-123.426 752.518,-128.355 748.917,-122.674 751.683,-133.285 751.683,-133.285"/>
</g>
<!-- Customer&#45;&gt;RetailItem -->
<g id="edge22" class="edge"><title>Customer&#45;&gt;RetailItem</title>
<path fill="none" stroke="#61498b" d="M499.689,-277.153C515.414,-260.318 535.56,-235.646 546.445,-210 556.87,-185.435 560.279,-154.985 561.286,-133.397"/>
<ellipse fill="none" stroke="#61498b" cx="496.882" cy="-280.094" rx="4.00002" ry="4.00002"/>
<polygon fill="#61498b" stroke="#61498b" points="561.289,-133.28 566.11,-123.431 561.451,-128.283 561.612,-123.285 561.612,-123.285 561.612,-123.285 561.451,-128.283 557.115,-123.14 561.289,-133.28 561.289,-133.28"/>
</g>
<!-- Customer&#45;&gt;Showdate -->
<g id="edge17" class="edge"><title>Customer&#45;&gt;Showdate</title>
<path fill="none" stroke="#31567d" d="M451.841,-276.807C443.34,-270.628 433.471,-264.623 423.445,-261 329.511,-227.063 294.161,-274.686 199.445,-243 142.295,-223.881 117.98,-211.891 95.4446,-156 91.5411,-146.319 95.8251,-136.684 102.573,-128.494"/>
<polygon fill="#31567d" stroke="#31567d" points="451.917,-276.865 457.099,-286.529 455.88,-279.914 459.843,-282.962 459.843,-282.962 459.843,-282.962 455.88,-279.914 462.586,-279.395 451.917,-276.865 451.917,-276.865"/>
<polygon fill="#31567d" stroke="#31567d" points="102.702,-128.359 112.864,-124.239 106.157,-124.744 109.611,-121.13 109.611,-121.13 109.611,-121.13 106.157,-124.744 106.358,-118.021 102.702,-128.359 102.702,-128.359"/>
</g>
<!-- Label -->
<g id="node44" class="node"><title>Label</title>
<ellipse fill="none" stroke="black" cx="506.445" cy="-192" rx="30.5947" ry="18"/>
<text text-anchor="middle" x="506.445" y="-188.3" font-family="Times,serif" font-size="14.00">Label</text>
</g>
<!-- Customer&#45;&gt;Label -->
<g id="edge14" class="edge"><title>Customer&#45;&gt;Label</title>
<path fill="none" stroke="#74491b" d="M484.794,-272.137C489.179,-256.11 494.727,-235.829 499.109,-219.811"/>
<polygon fill="#74491b" stroke="#74491b" points="484.743,-272.324 477.763,-280.782 483.423,-277.146 482.104,-281.969 482.104,-281.969 482.104,-281.969 483.423,-277.146 486.444,-283.157 484.743,-272.324 484.743,-272.324"/>
<polygon fill="#74491b" stroke="#74491b" points="499.158,-219.634 506.137,-211.176 500.477,-214.811 501.797,-209.988 501.797,-209.988 501.797,-209.988 500.477,-214.811 497.456,-208.801 499.158,-219.634 499.158,-219.634"/>
</g>
<!-- Show -->
<g id="node18" class="node"><title>Show</title>
<ellipse fill="none" stroke="black" cx="388.445" cy="-192" rx="30.5947" ry="18"/>
<text text-anchor="middle" x="388.445" y="-188.3" font-family="Times,serif" font-size="14.00">Show</text>
</g>
<!-- Show&#45;&gt;Import -->
<g id="edge27" class="edge"><title>Show&#45;&gt;Import</title>
<path fill="none" stroke="#c7008d" d="M424.063,-182.352C437.308,-179.37 452.504,-176.225 466.445,-174 698.247,-137.009 978.885,-116.022 1086.49,-108.841"/>
<ellipse fill="none" stroke="#c7008d" cx="419.996" cy="-183.284" rx="4.00001" ry="4.00001"/>
<polygon fill="#c7008d" stroke="#c7008d" points="1086.67,-108.829 1096.95,-112.66 1091.66,-108.499 1096.65,-108.169 1096.65,-108.169 1096.65,-108.169 1091.66,-108.499 1096.35,-103.679 1086.67,-108.829 1086.67,-108.829"/>
</g>
<!-- Show&#45;&gt;Voucher -->
<g id="edge26" class="edge"><title>Show&#45;&gt;Voucher</title>
<path fill="none" stroke="#a4de2e" d="M409.973,-168.411C412.621,-164.522 414.926,-160.33 416.445,-156 418.651,-149.709 418.389,-147.377 416.445,-141 404.796,-102.786 376.731,-65.6882 356.683,-42.6309"/>
<polygon fill="#a4de2e" stroke="#a4de2e" points="409.927,-168.47 400.243,-173.615 406.863,-172.421 403.799,-176.372 403.799,-176.372 403.799,-176.372 406.863,-172.421 407.356,-179.13 409.927,-168.47 409.927,-168.47"/>
<polygon fill="#a4de2e" stroke="#a4de2e" points="356.614,-42.5528 353.328,-32.0906 353.29,-38.8173 349.966,-35.0819 349.966,-35.0819 349.966,-35.0819 353.29,-38.8173 346.604,-38.0732 356.614,-42.5528 356.614,-42.5528"/>
</g>
<!-- Show&#45;&gt;Showdate -->
<g id="edge24" class="edge"><title>Show&#45;&gt;Showdate</title>
<path fill="none" stroke="#beb2bf" d="M357.017,-177.087C354.464,-176.022 351.916,-174.981 349.445,-174 309.067,-157.979 298.858,-154.113 257.445,-141 231.212,-132.694 201.586,-124.464 177.55,-118.074"/>
<ellipse fill="none" stroke="#beb2bf" cx="360.943" cy="-178.754" rx="4.00002" ry="4.00002"/>
<polygon fill="#beb2bf" stroke="#beb2bf" points="177.286,-118.005 168.765,-111.102 172.452,-116.729 167.617,-115.453 167.617,-115.453 167.617,-115.453 172.452,-116.729 166.469,-119.804 177.286,-118.005 177.286,-118.005"/>
</g>
<!-- Show&#45;&gt;Showdate -->
<g id="edge25" class="edge"><title>Show&#45;&gt;Showdate</title>
<path fill="none" stroke="#756229" d="M361.439,-174.238C342.906,-163.382 317.419,-149.697 293.445,-141 256.823,-127.715 213.653,-118.725 180.944,-113.186"/>
<ellipse fill="none" stroke="#756229" cx="364.994" cy="-176.35" rx="4.00002" ry="4.00002"/>
<ellipse fill="#756229" stroke="#756229" cx="176.81" cy="-112.503" rx="4.00001" ry="4.00001"/>
<text text-anchor="middle" x="368.945" y="-144.8" font-family="Times,serif" font-size="14.00">latest_showdate</text>
</g>
<!-- Report -->
<g id="node19" class="node"><title>Report</title>
<polygon fill="none" stroke="black" points="1449.44,-318 1395.44,-318 1395.44,-282 1449.44,-282 1449.44,-318"/>
<text text-anchor="middle" x="1422.44" y="-296.3" font-family="Times,serif" font-size="14.00">Report</text>
</g>
<!-- GoldstarAutoImporter -->
<g id="node20" class="node"><title>GoldstarAutoImporter</title>
<polygon fill="none" stroke="black" points="1605.44,-318 1467.44,-318 1467.44,-282 1605.44,-282 1605.44,-318"/>
<text text-anchor="middle" x="1536.44" y="-296.3" font-family="Times,serif" font-size="14.00">GoldstarAutoImporter</text>
</g>
<!-- AccountingReport -->
<g id="node21" class="node"><title>AccountingReport</title>
<polygon fill="none" stroke="black" points="1739.44,-318 1623.44,-318 1623.44,-282 1739.44,-282 1739.44,-318"/>
<text text-anchor="middle" x="1681.44" y="-296.3" font-family="Times,serif" font-size="14.00">AccountingReport</text>
</g>
<!-- Purchasemethod -->
<g id="node22" class="node"><title>Purchasemethod</title>
<ellipse fill="none" stroke="black" cx="1827.44" cy="-300" rx="69.5877" ry="18"/>
<text text-anchor="middle" x="1827.44" y="-296.3" font-family="Times,serif" font-size="14.00">Purchasemethod</text>
</g>
<!-- ExternalTicketOrder -->
<g id="node23" class="node"><title>ExternalTicketOrder</title>
<polygon fill="none" stroke="black" points="2043.44,-318 1915.44,-318 1915.44,-282 2043.44,-282 2043.44,-318"/>
<text text-anchor="middle" x="1979.44" y="-296.3" font-family="Times,serif" font-size="14.00">ExternalTicketOrder</text>
</g>
<!-- BulkDownload -->
<g id="node24" class="node"><title>BulkDownload</title>
<ellipse fill="none" stroke="black" cx="2125.44" cy="-300" rx="64.189" ry="18"/>
<text text-anchor="middle" x="2125.44" y="-296.3" font-family="Times,serif" font-size="14.00">BulkDownload</text>
</g>
<!-- VoucherPresenter -->
<g id="node25" class="node"><title>VoucherPresenter</title>
<polygon fill="none" stroke="black" points="2320.94,-318 2207.94,-318 2207.94,-282 2320.94,-282 2320.94,-318"/>
<text text-anchor="middle" x="2264.44" y="-296.3" font-family="Times,serif" font-size="14.00">VoucherPresenter</text>
</g>
<!-- EmailList -->
<g id="node26" class="node"><title>EmailList</title>
<polygon fill="none" stroke="black" points="2409.94,-318 2338.94,-318 2338.94,-282 2409.94,-282 2409.94,-318"/>
<text text-anchor="middle" x="2374.44" y="-296.3" font-family="Times,serif" font-size="14.00">EmailList</text>
</g>
<!-- AutoImporter -->
<g id="node28" class="node"><title>AutoImporter</title>
<polygon fill="none" stroke="black" points="2520.44,-318 2428.44,-318 2428.44,-282 2520.44,-282 2520.44,-318"/>
<text text-anchor="middle" x="2474.44" y="-296.3" font-family="Times,serif" font-size="14.00">AutoImporter</text>
</g>
<!-- Voucher&#45;&gt;Voucher -->
<g id="edge28" class="edge"><title>Voucher&#45;&gt;Voucher</title>
<path fill="none" stroke="#2a5115" d="M379.421,-25.4424C387.632,-24.5003 393.391,-22.0195 393.391,-18 393.391,-14.3086 388.534,-11.9149 381.381,-10.8191"/>
<ellipse fill="none" stroke="#2a5115" cx="375.28" cy="-25.6626" rx="4" ry="4"/>
<polygon fill="#2a5115" stroke="#2a5115" points="381.263,-10.811 371.595,-5.6356 376.274,-10.468 371.286,-10.125 371.286,-10.125 371.286,-10.125 376.274,-10.468 370.977,-14.6144 381.263,-10.811 381.263,-10.811"/>
<text text-anchor="middle" x="443.391" y="-14.3" font-family="Times,serif" font-size="14.00">bundled_vouchers</text>
</g>
<!-- CanceledItem -->
<g id="node30" class="node"><title>CanceledItem</title>
<ellipse fill="none" stroke="black" cx="2598.44" cy="-300" rx="59.5901" ry="18"/>
<text text-anchor="middle" x="2598.44" y="-296.3" font-family="Times,serif" font-size="14.00">CanceledItem</text>
</g>
<!-- AccountCode -->
<g id="node33" class="node"><title>AccountCode</title>
<ellipse fill="none" stroke="black" cx="668.445" cy="-300" rx="59.2899" ry="18"/>
<text text-anchor="middle" x="668.445" y="-296.3" font-family="Times,serif" font-size="14.00">AccountCode</text>
</g>
<!-- AccountCode&#45;&gt;Vouchertype -->
<g id="edge30" class="edge"><title>AccountCode&#45;&gt;Vouchertype</title>
<path fill="none" stroke="#528630" d="M618.337,-285.077C592.404,-277.877 560.228,-268.954 531.445,-261 463.663,-242.269 385.391,-220.737 335.441,-207.009"/>
<ellipse fill="none" stroke="#528630" cx="622.32" cy="-286.183" rx="4.00001" ry="4.00001"/>
<polygon fill="#528630" stroke="#528630" points="335.176,-206.936 326.726,-199.947 330.354,-205.611 325.533,-204.286 325.533,-204.286 325.533,-204.286 330.354,-205.611 324.341,-208.625 335.176,-206.936 335.176,-206.936"/>
</g>
<!-- AccountCode&#45;&gt;Donation -->
<g id="edge29" class="edge"><title>AccountCode&#45;&gt;Donation</title>
<path fill="none" stroke="#d3b2bb" d="M704.942,-279.632C718.691,-270.417 733.025,-258.084 741.445,-243 760.458,-208.939 760.922,-162.646 758.759,-133.548"/>
<ellipse fill="none" stroke="#d3b2bb" cx="701.212" cy="-282.013" rx="4.00002" ry="4.00002"/>
<polygon fill="#d3b2bb" stroke="#d3b2bb" points="758.733,-133.259 762.315,-122.895 758.283,-128.279 757.834,-123.3 757.834,-123.3 757.834,-123.3 758.283,-128.279 753.352,-123.704 758.733,-133.259 758.733,-133.259"/>
</g>
<!-- AttendanceByShow -->
<g id="node34" class="node"><title>AttendanceByShow</title>
<polygon fill="none" stroke="black" points="2800.94,-318 2675.94,-318 2675.94,-282 2800.94,-282 2800.94,-318"/>
<text text-anchor="middle" x="2738.44" y="-296.3" font-family="Times,serif" font-size="14.00">AttendanceByShow</text>
</g>
<!-- NewCustomers -->
<g id="node35" class="node"><title>NewCustomers</title>
<polygon fill="none" stroke="black" points="2919.94,-318 2818.94,-318 2818.94,-282 2919.94,-282 2919.94,-318"/>
<text text-anchor="middle" x="2869.44" y="-296.3" font-family="Times,serif" font-size="14.00">NewCustomers</text>
</g>
<!-- SearchCustomersByLabel -->
<g id="node36" class="node"><title>SearchCustomersByLabel</title>
<polygon fill="none" stroke="black" points="3096.44,-318 2938.44,-318 2938.44,-282 3096.44,-282 3096.44,-318"/>
<text text-anchor="middle" x="3017.44" y="-296.3" font-family="Times,serif" font-size="14.00">SearchCustomersByLabel</text>
</g>
<!-- AttendanceAtSpecificPerformances -->
<g id="node37" class="node"><title>AttendanceAtSpecificPerformances</title>
<polygon fill="none" stroke="black" points="3325.94,-318 3114.94,-318 3114.94,-282 3325.94,-282 3325.94,-318"/>
<text text-anchor="middle" x="3220.44" y="-296.3" font-family="Times,serif" font-size="14.00">AttendanceAtSpecificPerformances</text>
</g>
<!-- SubscriberOpenVouchers -->
<g id="node38" class="node"><title>SubscriberOpenVouchers</title>
<polygon fill="none" stroke="black" points="3498.94,-318 3343.94,-318 3343.94,-282 3498.94,-282 3498.94,-318"/>
<text text-anchor="middle" x="3421.44" y="-296.3" font-family="Times,serif" font-size="14.00">SubscriberOpenVouchers</text>
</g>
<!-- DonorAppeal -->
<g id="node39" class="node"><title>DonorAppeal</title>
<polygon fill="none" stroke="black" points="3607.44,-318 3517.44,-318 3517.44,-282 3607.44,-282 3607.44,-318"/>
<text text-anchor="middle" x="3562.44" y="-296.3" font-family="Times,serif" font-size="14.00">DonorAppeal</text>
</g>
<!-- LapsedSubscribers -->
<g id="node40" class="node"><title>LapsedSubscribers</title>
<polygon fill="none" stroke="black" points="3744.94,-318 3625.94,-318 3625.94,-282 3744.94,-282 3744.94,-318"/>
<text text-anchor="middle" x="3685.44" y="-296.3" font-family="Times,serif" font-size="14.00">LapsedSubscribers</text>
</g>
<!-- AllSubscribers -->
<g id="node41" class="node"><title>AllSubscribers</title>
<polygon fill="none" stroke="black" points="3859.94,-318 3762.94,-318 3762.94,-282 3859.94,-282 3859.94,-318"/>
<text text-anchor="middle" x="3811.44" y="-296.3" font-family="Times,serif" font-size="14.00">AllSubscribers</text>
</g>
<!-- Showdate&#45;&gt;Vouchertype -->
<g id="edge34" class="edge"><title>Showdate&#45;&gt;Vouchertype</title>
<path fill="none" stroke="#69452a" d="M105.451,-129.612C99.0734,-138.399 95.6993,-148.138 102.445,-156 119.573,-175.965 193.685,-168.665 219.445,-174 224.124,-174.969 228.97,-176.064 233.81,-177.218"/>
<polygon fill="#69452a" stroke="#69452a" points="105.51,-129.542 115.391,-124.787 108.729,-125.716 111.948,-121.89 111.948,-121.89 111.948,-121.89 108.729,-125.716 108.505,-118.993 105.51,-129.542 105.51,-129.542"/>
<polygon fill="#69452a" stroke="#69452a" points="233.972,-177.258 242.604,-184.021 238.826,-178.455 243.681,-179.652 243.681,-179.652 243.681,-179.652 238.826,-178.455 244.758,-175.283 233.972,-177.258 233.972,-177.258"/>
<text text-anchor="middle" x="166.445" y="-144.8" font-family="Times,serif" font-size="14.00">available_vouchertypes</text>
</g>
<!-- Showdate&#45;&gt;ValidVoucher -->
<g id="edge35" class="edge"><title>Showdate&#45;&gt;ValidVoucher</title>
<path fill="none" stroke="#358c85" d="M101.826,-84.1304C96.3304,-79.5475 90.9059,-74.4145 86.4446,-69 80.6313,-61.9445 75.5979,-53.3785 71.5495,-45.3445"/>
<ellipse fill="none" stroke="#358c85" cx="105.124" cy="-86.7524" rx="4.00002" ry="4.00002"/>
<polygon fill="#358c85" stroke="#358c85" points="71.5379,-45.3199 71.3298,-34.3559 69.3999,-40.8 67.2619,-36.2801 67.2619,-36.2801 67.2619,-36.2801 69.3999,-40.8 63.194,-38.2043 71.5379,-45.3199 71.5379,-45.3199"/>
</g>
<!-- Showdate&#45;&gt;Voucher -->
<g id="edge31" class="edge"><title>Showdate&#45;&gt;Voucher</title>
<path fill="none" stroke="#912922" d="M112.107,-80.6561C107.259,-71.583 104.967,-61.5731 111.445,-54 133.071,-28.7145 224.12,-21.5739 282.981,-19.6319"/>
<ellipse fill="none" stroke="#912922" cx="114.326" cy="-84.261" rx="4.00002" ry="4.00002"/>
<polygon fill="#912922" stroke="#912922" points="283.218,-19.6252 293.344,-23.8337 288.216,-19.4804 293.214,-19.3356 293.214,-19.3356 293.214,-19.3356 288.216,-19.4804 293.083,-14.8375 283.218,-19.6252 283.218,-19.6252"/>
</g>
<!-- Showdate&#45;&gt;Voucher -->
<g id="edge32" class="edge"><title>Showdate&#45;&gt;Voucher</title>
<path fill="none" stroke="#f2dc45" d="M124.821,-78.6617C124.352,-69.935 125.697,-60.686 131.445,-54 150.717,-31.5789 229.777,-23.5198 283.354,-20.6237"/>
<ellipse fill="none" stroke="#f2dc45" cx="125.291" cy="-82.7934" rx="4.00001" ry="4.00001"/>
<polygon fill="#f2dc45" stroke="#f2dc45" points="283.385,-20.6223 293.596,-24.6201 288.379,-20.374 293.372,-20.1256 293.372,-20.1256 293.372,-20.1256 288.379,-20.374 293.149,-15.6312 283.385,-20.6223 283.385,-20.6223"/>
<text text-anchor="middle" x="166.445" y="-57.8" font-family="Times,serif" font-size="14.00">all_vouchers</text>
</g>
<!-- Showdate&#45;&gt;Voucher -->
<g id="edge33" class="edge"><title>Showdate&#45;&gt;Voucher</title>
<path fill="none" stroke="#a29937" d="M166.449,-87.2889C177.796,-81.7475 190.279,-75.3628 201.445,-69 212.048,-62.9578 213.419,-59.231 224.445,-54 245.14,-44.1819 269.282,-36.154 289.669,-30.2748"/>
<ellipse fill="none" stroke="#a29937" cx="162.783" cy="-89.0599" rx="4.00002" ry="4.00002"/>
<polygon fill="#a29937" stroke="#a29937" points="289.714,-30.2621 300.558,-31.8959 294.529,-28.9125 299.343,-27.5629 299.343,-27.5629 299.343,-27.5629 294.529,-28.9125 298.129,-23.2299 289.714,-30.2621 289.714,-30.2621"/>
<text text-anchor="middle" x="272.445" y="-57.8" font-family="Times,serif" font-size="14.00">walkup_vouchers</text>
</g>
<!-- TransactionDetailsReport -->
<g id="node43" class="node"><title>TransactionDetailsReport</title>
<polygon fill="none" stroke="black" points="4032.94,-318 3877.94,-318 3877.94,-282 4032.94,-282 4032.94,-318"/>
<text text-anchor="middle" x="3955.44" y="-296.3" font-family="Times,serif" font-size="14.00">TransactionDetailsReport</text>
</g>
</g>
</svg>
